<svg width="91" height="36" viewBox="0 0 91 36" fill="none" xmlns="http://www.w3.org/2000/svg">
<g clip-path="url(#clip0_3_11)">
<path d="M48.4355 27.2908H51.113L52.2664 24.0785H58.3215L59.4955 27.2908H62.3583L56.7562 12.8255H53.9964L48.4355 27.2908ZM55.2733 15.7585L57.5389 21.9636H53.0284L55.2733 15.7585ZM70.5714 27.2908H73.0223V16.5566H70.5714V22.2828C70.5714 24.2182 69.9124 25.6148 68.0793 25.6148C66.2463 25.6148 66.0404 24.1982 66.0404 22.7417V16.5566H63.5895V23.3204C63.5895 25.8742 64.6605 27.5502 67.2967 27.5502C68.8002 27.5502 69.933 26.9317 70.5714 25.8144V27.2908ZM76.1315 16.5566H74.4838V18.2725H76.1315V24.4776C76.1315 26.6723 76.6052 27.2908 78.9737 27.2908H80.7861V25.4752H79.9005C78.8501 25.4752 78.5823 25.2158 78.5823 24.1184V18.2725H80.8067V16.5566H78.5823V13.7234H76.1315V16.5566Z" fill="black"/>
<path d="M82.7617 11.4781C82.7617 13.8405 84.5961 15.4579 86.8809 15.4579C89.1546 15.4579 90.989 13.8405 90.989 11.4781C90.989 9.09451 89.1546 7.46642 86.8809 7.46642C84.5961 7.46642 82.7617 9.09451 82.7617 11.4781ZM83.5746 11.4781C83.5746 9.49887 85.0355 8.17937 86.8809 8.17937C88.7702 8.17937 90.1762 9.49887 90.1762 11.4781C90.1762 13.4361 88.7702 14.7449 86.8809 14.7449C85.0355 14.7449 83.5746 13.4361 83.5746 11.4781ZM87.9024 13.4467H88.902L87.8914 11.6484C88.4516 11.4036 88.6823 10.9886 88.6823 10.5204C88.6823 9.42438 87.9024 9.20092 86.6172 9.20092H85.2771V13.4467H86.1779V11.8293H86.815H87.0127L87.9024 13.4467ZM87.7816 10.5311C87.7816 10.9461 87.507 11.1589 86.815 11.1589H86.1779V9.89259H86.76C87.3752 9.89259 87.7816 10.0203 87.7816 10.5311Z" fill="black"/>
</g>
<g clip-path="url(#clip1_3_11)">
<path d="M16.145 -4.95911e-05H24.2178L28.2539 7.1862L32.2902 14.3728L36.3264 21.5595L40.3629 28.746L36.3264 35.9327H28.2539L24.2178 28.746L20.1816 21.5595L16.145 14.3728L12.1089 7.1862L16.145 -4.95911e-05Z" fill="url(#paint0_linear_3_11)"/>
<path d="M24.2175 0H16.145L12.1085 7.18623L8.07235 14.3733L4.03617 21.5595L0 28.7461L4.03617 35.9328H12.1085L16.145 28.7461L20.1812 21.5598L24.2175 14.3733L28.2536 7.18623L24.2175 0Z" fill="#2ABA7C"/>
<path d="M36.3266 21.5595H28.2543L24.2178 28.746L28.2543 35.9327H36.3266L40.3628 28.746L36.3266 21.5595Z" fill="#2ABA7C"/>
</g>
<defs>
<linearGradient id="paint0_linear_3_11" x1="12.109" y1="17.9663" x2="40.3628" y2="17.9663" gradientUnits="userSpaceOnUse">
<stop stop-color="#28E593"/>
<stop offset="0.000975" stop-color="#28E593"/>
<stop offset="0.170638" stop-color="#28E593"/>
<stop offset="1" stop-color="#02C584"/>
</linearGradient>
<clipPath id="clip0_3_11">
<rect width="42.5645" height="21.2823" fill="white" transform="translate(48.4355 7.33871)"/>
</clipPath>
<clipPath id="clip1_3_11">
<rect width="40.3629" height="35.9597" fill="white"/>
</clipPath>
</defs>
</svg>
