<svg xmlns="http://www.w3.org/2000/svg" viewBox="0 0 856.07 178.05"><defs><style>.cls-1{fill:#21e2a9;}</style></defs><title>转发资源 1</title><g id="图层_2" data-name="图层 2"><g id="图层_1-2" data-name="图层 1"><path class="cls-1" d="M254.22,62.7l43.38-6.2,2.27,17.68q4.81-12.41,14.47-17.46t24.57-5q25.48,0,35.82,16.31,9.42-16.31,35.37-16.31,40,0,40,43.18v47.76a65.09,65.09,0,0,0,1.61,14.93,48.64,48.64,0,0,0,5.51,13.55,32.43,32.43,0,0,1-11.25,4.25,65.51,65.51,0,0,1-13.32,1.49q-17.91,0-27.79-8.27t-9.88-25.26V93.93q0-1.38.12-8.73t-1.72-11.83c-1.23-3-3.07-4.48-5.52-4.48a5.62,5.62,0,0,0-5.51,3.79,23.08,23.08,0,0,0-1.83,7.7q-.24,3.9-.23,12.4v80.61H325.13v-88a29.28,29.28,0,0,0-2.07-11.94c-1.38-3.06-3.52-4.6-6.43-4.6a6.26,6.26,0,0,0-6.43,4.37A34.77,34.77,0,0,0,308.59,85v88.42H253.48Z"/><path class="cls-1" d="M703.35,142.61a65.67,65.67,0,0,0,1.6,14.93,48.38,48.38,0,0,0,5.52,13.55,32.52,32.52,0,0,1-11.37,4.25,66.28,66.28,0,0,1-13.21,1.49q-18.14,0-27.9-8.27t-9.76-25.26v-87h55.12ZM696.46,5.28a16.88,16.88,0,0,1,7.35,14.47A16.1,16.1,0,0,1,696.11,34Q688.42,39,676,39q-12.18,0-19.75-4.94a15.67,15.67,0,0,1-7.58-13.89q0-9.18,8-14.7T677.17,0Q689.11,0,696.46,5.28Z"/><path class="cls-1" d="M722.18,56.26l44.09-2.75,2.3,20.67Q773.39,61.77,783,56.72t24.57-5q21.12,0,31.23,10.79T849,94.85v47.76a65.67,65.67,0,0,0,1.6,14.93,48.38,48.38,0,0,0,5.52,13.55,32.41,32.41,0,0,1-11.26,4.25,65.36,65.36,0,0,1-13.32,1.49q-17.91,0-27.78-8.27t-9.88-25.26V85.43a29.28,29.28,0,0,0-2.07-11.94c-1.37-3.06-3.52-4.6-6.43-4.6a6.26,6.26,0,0,0-6.43,4.37A34.77,34.77,0,0,0,777.29,85v88.42H722.18Z"/><path class="cls-1" d="M102.17,76.35l-64.92.43V65.53s-.87-16.44,17.31-16.88,22.07-.43,22.07-.43,29.43.87,35.06-36.35c-5.63,0-45.88.43-61.89.43C3.49,12.3-.4,30.48,0,89.33v88.72H36.82l.43-64.48H65S102.6,113.57,102.17,76.35Z"/><polygon class="cls-1" points="601.26 23.45 623.98 23.45 613.65 54.44 601.26 54.44 601.26 23.45"/><path class="cls-1" d="M464.85,95.84A64.57,64.57,0,0,1,511.53,49.1a6.29,6.29,0,0,1,7.62,4.53l3.12,12.23a6.29,6.29,0,0,1-4.53,7.62,39.39,39.39,0,1,0,46.78,24.87,6.26,6.26,0,0,1,3.77-8l11.87-4.28a6.26,6.26,0,0,1,8,3.77,65.35,65.35,0,0,1-5.53,55.52,63.28,63.28,0,0,1-54.45,31h-.75a65,65,0,0,1-51.14-25.24A64.27,64.27,0,0,1,464.85,95.84Z"/><path class="cls-1" d="M525.39,136.87c.74.06,1.49.09,2.22.09a26.33,26.33,0,0,0,24.32-16.07l1.39-4.24a25.58,25.58,0,0,0,.49-2.63l10.51-56a8.18,8.18,0,0,0-13.78-7.34l-42.72,42.1a26.5,26.5,0,0,0,17.57,44.1Zm-7.08-28.11a9.64,9.64,0,0,1,11.9-6.7,9.66,9.66,0,0,1-5.2,18.61h0a9.66,9.66,0,0,1-6.7-11.91Z"/><path class="cls-1" d="M222.94,66.52q16.81,15.23,16.82,45.7,0,19.54-8.07,34.1a55.83,55.83,0,0,1-22.85,22.5q-14.78,8-34.1,8-18.87,0-33.76-7.73a56.45,56.45,0,0,1-23.19-21.82q-8.31-14.1-8.3-32.74,0-30.69,17.05-46.95t48.2-16.25Q206.11,51.29,222.94,66.52Zm-39.56,83q1.81-13.63,1.82-36.15v-7Q185.2,87,183.26,76t-8.52-11q-6.6,0-8.53,10.57t-1.93,29v11.36q0,21.38,1.82,34.33t8.64,13Q181.57,163.14,183.38,149.5Z"/></g></g></svg>