<?xml version="1.0" encoding="UTF-8"?>
<svg xmlns="http://www.w3.org/2000/svg" xmlns:xlink="http://www.w3.org/1999/xlink" id="Layer_1" data-name="Layer 1" viewBox="0 0 678.89 216.71">
  <defs>
    <style>.cls-1{fill:url(#linear-gradient);}.cls-2{fill:url(#linear-gradient-2);}.cls-3{fill:url(#linear-gradient-3);}.cls-4{fill:url(#linear-gradient-4);}.cls-5{fill:url(#linear-gradient-5);}.cls-6{fill:#6d6e71;}</style>
    <linearGradient id="linear-gradient" x1="25.01" y1="106.83" x2="287.35" y2="112.53" gradientUnits="userSpaceOnUse">
      <stop offset="0" stop-color="#12c781"></stop>
      <stop offset="0.5" stop-color="#63e9da"></stop>
      <stop offset="1" stop-color="#09a9cb"></stop>
    </linearGradient>
    <linearGradient id="linear-gradient-2" x1="24.99" y1="107.85" x2="287.33" y2="113.55" xlink:href="#linear-gradient"></linearGradient>
    <linearGradient id="linear-gradient-3" x1="25.06" y1="104.79" x2="287.39" y2="110.49" xlink:href="#linear-gradient"></linearGradient>
    <linearGradient id="linear-gradient-4" x1="25.04" y1="105.81" x2="287.37" y2="111.52" xlink:href="#linear-gradient"></linearGradient>
    <linearGradient id="linear-gradient-5" x1="25.08" y1="103.77" x2="287.42" y2="109.47" xlink:href="#linear-gradient"></linearGradient>
  </defs>
  <title>Hela Labs new logo final</title>
  <path class="cls-1" d="M102.81,108.6a135.51,135.51,0,0,1,7.12-44h0A16,16,0,1,0,79.3,58.24a15.72,15.72,0,0,0,1.33,6.37h0a135.39,135.39,0,0,1,7.12,43.5,135.78,135.78,0,0,1-7.12,44h0a16,16,0,0,0,14.64,22.35,16,16,0,0,0,14.65-22.35A135.58,135.58,0,0,1,102.81,108.6Z"></path>
  <path class="cls-2" d="M48.2,92.38a16,16,0,1,0,16,16A16,16,0,0,0,48.2,92.38Z"></path>
  <path class="cls-3" d="M189.14,42.26a16,16,0,0,0-14.65,22.35h0a138,138,0,0,1,0,87.49,16,16,0,1,0,30.62,6.38,15.81,15.81,0,0,0-1.33-6.38h0a137.94,137.94,0,0,1,0-87.49h0a16,16,0,0,0-14.64-22.35Z"></path>
  <path class="cls-4" d="M156.72,131l-.09-.12a15.89,15.89,0,0,0-3.17-4.66c-3.87-5.65-7.71-11.69-7.69-18s3.82-12.1,7.63-17.66a16.19,16.19,0,0,0,3.25-4.74l.06-.1h0a16,16,0,1,0-29.26,0h0l.1.14a15.82,15.82,0,0,0,3.15,4.63c3.88,5.65,7.72,11.7,7.7,18s-3.81,12.11-7.63,17.66a15.92,15.92,0,0,0-3.24,4.73l-.07.11h0a16,16,0,1,0,29.26,0Z"></path>
  <path class="cls-5" d="M236.21,92.38a16,16,0,1,0,16,16A16,16,0,0,0,236.21,92.38Z"></path>
  <polygon class="cls-6" points="354.27 98.18 315.02 98.18 315.02 59.5 297.32 59.5 297.32 157.26 315.02 157.26 315.02 112.07 354.27 112.07 354.27 157.26 371.98 157.26 371.98 59.5 354.27 59.5 354.27 98.18"></polygon>
  <path class="cls-6" d="M460.74,123.61q4.59-4.89,4.46-14.38-.15-11.48-7.51-17.35T433.46,86q-12,0-19.62,3.4a21.24,21.24,0,0,0-11,11.4q-3.46,8-3.47,21.75,0,12.75,3.47,20.83A22.6,22.6,0,0,0,414,155.2q7.72,3.77,20.48,3.76,4.67,0,10-.5A99.11,99.11,0,0,0,454.71,157a48.4,48.4,0,0,0,8.79-2.55l-1.7-10.91q-6.37.71-13.25,1.13t-12.11.43q-7.08,0-11.34-1.92A11.54,11.54,0,0,1,419,136a33.44,33.44,0,0,1-1.5-7.51h28Q456.13,128.5,460.74,123.61Zm-43.51-5.74a42,42,0,0,1,1.43-10.62,10.39,10.39,0,0,1,5.17-6.66q3.69-1.84,10.34-1.84,7.65,0,10.84,2.27c2.13,1.51,3.23,4.2,3.33,8.07a13.16,13.16,0,0,1-1.35,6.23c-.89,1.7-2.95,2.55-6.16,2.55Z"></path>
  <path class="cls-6" d="M517.62,142.81a8.88,8.88,0,0,1-6.31-2.06c-1.46-1.36-2.19-3.42-2.19-6.16V59.5H491.55V138q0,8.5,5,14t15.79,5.52q10.2,0,20.62-.21t20-1.06l-.85-13.46Z"></path>
  <path class="cls-6" d="M632.79,95.63a16.49,16.49,0,0,0-8.71-7.44A39.7,39.7,0,0,0,610,86q-5.1,0-11.47.42c-4.25.29-8.45.66-12.61,1.14s-7.89,1-11.19,1.7L576.27,101q8.21-.72,16.36-1.14t13.53-.42q7.23,0,9.77,2.48t2.56,8v4.53H591.71q-9.5,0-15,4.61t-5.45,12.82v7.37A19.07,19.07,0,0,0,574.14,150a17.56,17.56,0,0,0,7.79,6.52,27.47,27.47,0,0,0,11.2,2.2,32.11,32.11,0,0,0,11.12-1.85,36,36,0,0,0,8.92-4.67,44.68,44.68,0,0,0,6.59-5.74l.57-.63,1.84,11.47h13.6V110.08Q635.77,100.87,632.79,95.63Zm-17.21,43.92a40.73,40.73,0,0,1-9.28,4.53,27.12,27.12,0,0,1-8.5,1.56q-4.81,0-7.08-2.19T588.45,137v-3.82a8.54,8.54,0,0,1,1.84-5.81q1.85-2.13,6.09-2.27h22.11v12.36C617.55,138.2,616.59,138.9,615.58,139.55Z"></path>
</svg>
