<svg width="180" height="30" viewBox="0 0 180 30" fill="none" xmlns="http://www.w3.org/2000/svg">
<path d="M16.5183 24.0837C16.5453 21.3301 15.8472 19.0909 14.9592 19.0822C14.0711 19.0736 13.3294 21.2987 13.3025 24.0522C13.2756 26.8058 13.9737 29.0451 14.8617 29.0537C15.7497 29.0624 16.4915 26.8373 16.5183 24.0837Z" fill="#1777E2"/>
<path d="M11.3684 23.4583C12.8799 21.1565 13.5033 18.8953 12.761 18.4079C12.0186 17.9204 10.1916 19.3913 8.68015 21.6931C7.16869 23.995 6.54523 26.2561 7.28755 26.7436C8.02993 27.231 9.85693 25.7602 11.3684 23.4583Z" fill="#1777E2"/>
<path d="M7.36772 20.1558C9.88376 19.0367 11.6308 17.4716 11.2698 16.6602C10.9089 15.8488 8.57672 16.0982 6.06068 17.2174C3.54466 18.3365 1.79762 19.9016 2.15855 20.713C2.51948 21.5245 4.8517 21.275 7.36772 20.1558Z" fill="#1777E2"/>
<path d="M10.9676 14.3847C11.1027 13.507 9.00586 12.4558 6.28426 12.0369C3.56259 11.618 1.24674 11.99 1.11165 12.8677C0.976551 13.7455 3.07336 14.7965 5.79501 15.2155C8.51662 15.6344 10.8325 15.2624 10.9676 14.3847Z" fill="#1777E2"/>
<path d="M11.9446 12.2937C12.5327 11.6283 11.3368 9.61057 9.27342 7.78699C7.21008 5.96342 5.06065 5.02456 4.47255 5.69C3.88444 6.35545 5.08036 8.37319 7.14372 10.1968C9.20706 12.0203 11.3565 12.9592 11.9446 12.2937Z" fill="#1777E2"/>
<path d="M13.8906 11.0717C14.7451 10.8299 14.83 8.48585 14.0803 5.83622C13.3305 3.18656 12.03 1.23462 11.1754 1.47642C10.3209 1.71823 10.236 4.06221 10.9858 6.71189C11.7355 9.36149 13.0361 11.3135 13.8906 11.0717Z" fill="#1777E2"/>
<path d="M19.1751 6.79435C19.977 4.15999 19.9383 1.81478 19.0887 1.55618C18.2391 1.29756 16.9004 3.22348 16.0985 5.85783C15.2966 8.49217 15.3353 10.8374 16.1849 11.096C17.0345 11.3546 18.3732 9.42871 19.1751 6.79435Z" fill="#1777E2"/>
<path d="M22.9507 10.3539C25.0493 8.571 26.2845 6.57701 25.7094 5.90023C25.1345 5.22343 22.9671 6.12012 20.8685 7.90296C18.7699 9.68585 17.5348 11.6798 18.1098 12.3566C18.6848 13.0334 20.8521 12.1368 22.9507 10.3539Z" fill="#1777E2"/>
<path d="M24.1994 15.3912C26.9288 15.026 29.0459 14.0164 28.9282 13.1362C28.8104 12.256 26.5024 11.8384 23.773 12.2035C21.0436 12.5687 18.9265 13.5783 19.0442 14.4585C19.162 15.3387 21.47 15.7563 24.1994 15.3912Z" fill="#1777E2"/>
<path d="M27.7202 20.9646C28.097 20.1605 26.3812 18.5613 23.8877 17.3928C21.3943 16.2242 19.0674 15.9288 18.6906 16.7329C18.3137 17.5371 20.0295 19.1363 22.523 20.3049C25.0164 21.4734 27.3433 21.7688 27.7202 20.9646Z" fill="#1777E2"/>
<path d="M22.4752 26.8979C23.227 26.4253 22.6483 24.1522 21.1825 21.821C19.7168 19.4899 17.9191 17.9833 17.1673 18.456C16.4155 18.9287 16.9942 21.2017 18.46 23.5329C19.9257 25.8641 21.7234 27.3707 22.4752 26.8979Z" fill="#1777E2"/>
<path d="M39.768 22V8.28H42.748V13.72H48.828V8.28H51.808V22H48.828V16.24H42.748V22H39.768ZM58.8262 22V16.48L53.5062 8.28H56.9662L60.3662 13.8H60.4662L63.8462 8.28H67.1062L61.8262 16.48V22H58.8262ZM68.8305 22V8.28H74.4305C75.8572 8.28 77.0705 8.52667 78.0705 9.02C79.0705 9.51333 79.8372 10.2667 80.3705 11.28C80.9172 12.28 81.1905 13.5667 81.1905 15.14C81.1905 16.7 80.9172 17.9867 80.3705 19C79.8372 20.0133 79.0705 20.7667 78.0705 21.26C77.0705 21.7533 75.8572 22 74.4305 22H68.8305ZM71.8105 19.54H74.4105C75.0105 19.54 75.5439 19.4533 76.0105 19.28C76.4772 19.1067 76.8639 18.8533 77.1705 18.52C77.4772 18.1733 77.7105 17.7467 77.8705 17.24C78.0305 16.72 78.1105 16.12 78.1105 15.44V14.84C78.1105 14.16 78.0305 13.5667 77.8705 13.06C77.7105 12.54 77.4772 12.1133 77.1705 11.78C76.8639 11.4333 76.4772 11.1733 76.0105 11C75.5439 10.8133 75.0105 10.72 74.4105 10.72H71.8105V19.54ZM86.4684 22V10.78H82.0684V8.28H93.8884V10.78H89.4684V22H86.4684ZM99.8266 22V8.28H106.967C107.953 8.28 108.773 8.46667 109.427 8.84C110.093 9.2 110.593 9.71333 110.927 10.38C111.273 11.0333 111.447 11.8133 111.447 12.72C111.447 13.6267 111.267 14.42 110.907 15.1C110.56 15.7667 110.047 16.2867 109.367 16.66C108.687 17.0333 107.853 17.22 106.867 17.22H102.807V22H99.8266ZM102.807 14.78H106.467C107.093 14.78 107.573 14.6 107.907 14.24C108.253 13.88 108.427 13.38 108.427 12.74C108.427 12.3 108.353 11.9333 108.207 11.64C108.06 11.3467 107.84 11.12 107.547 10.96C107.267 10.8 106.907 10.72 106.467 10.72H102.807V14.78ZM113.2 22V11.48H115.5L115.72 13.12H115.86C115.993 12.7733 116.167 12.46 116.38 12.18C116.593 11.8867 116.86 11.6533 117.18 11.48C117.5 11.3067 117.873 11.22 118.3 11.22C118.527 11.22 118.733 11.2467 118.92 11.3C119.107 11.34 119.247 11.38 119.34 11.42V13.94H118.48C118.067 13.94 117.7 14 117.38 14.12C117.073 14.2267 116.813 14.4 116.6 14.64C116.387 14.88 116.227 15.1733 116.12 15.52C116.027 15.8667 115.98 16.2733 115.98 16.74V22H113.2ZM125.442 22.24C124.296 22.24 123.322 22.0467 122.522 21.66C121.722 21.26 121.116 20.6533 120.702 19.84C120.289 19.0133 120.082 17.98 120.082 16.74C120.082 15.4733 120.289 14.44 120.702 13.64C121.116 12.8267 121.722 12.2267 122.522 11.84C123.322 11.44 124.296 11.24 125.442 11.24C126.616 11.24 127.596 11.44 128.382 11.84C129.182 12.2267 129.789 12.8267 130.202 13.64C130.616 14.44 130.822 15.4733 130.822 16.74C130.822 17.98 130.616 19.0133 130.202 19.84C129.789 20.6533 129.182 21.26 128.382 21.66C127.596 22.0467 126.616 22.24 125.442 22.24ZM125.442 20.08C126.056 20.08 126.542 19.9667 126.902 19.74C127.276 19.5133 127.549 19.1667 127.722 18.7C127.896 18.2333 127.982 17.66 127.982 16.98V16.5C127.982 15.82 127.896 15.2467 127.722 14.78C127.549 14.3133 127.276 13.9667 126.902 13.74C126.542 13.5 126.056 13.38 125.442 13.38C124.842 13.38 124.356 13.5 123.982 13.74C123.622 13.9667 123.356 14.3133 123.182 14.78C123.009 15.2467 122.922 15.82 122.922 16.5V16.98C122.922 17.66 123.009 18.2333 123.182 18.7C123.356 19.1667 123.622 19.5133 123.982 19.74C124.356 19.9667 124.842 20.08 125.442 20.08ZM136.008 22.24C135.341 22.24 134.801 22.12 134.388 21.88C133.975 21.64 133.675 21.32 133.488 20.92C133.301 20.5067 133.208 20.0533 133.208 19.56V13.62H131.908V11.48H133.308L133.828 8.48H135.988V11.48H137.908V13.62H135.988V19.1C135.988 19.42 136.061 19.6667 136.208 19.84C136.355 20 136.595 20.08 136.928 20.08H137.908V21.92C137.748 21.9733 137.561 22.02 137.348 22.06C137.135 22.1133 136.908 22.1533 136.668 22.18C136.428 22.22 136.208 22.24 136.008 22.24ZM144.544 22.24C143.397 22.24 142.424 22.0467 141.624 21.66C140.824 21.26 140.217 20.6533 139.804 19.84C139.39 19.0133 139.184 17.98 139.184 16.74C139.184 15.4733 139.39 14.44 139.804 13.64C140.217 12.8267 140.824 12.2267 141.624 11.84C142.424 11.44 143.397 11.24 144.544 11.24C145.717 11.24 146.697 11.44 147.484 11.84C148.284 12.2267 148.89 12.8267 149.304 13.64C149.717 14.44 149.924 15.4733 149.924 16.74C149.924 17.98 149.717 19.0133 149.304 19.84C148.89 20.6533 148.284 21.26 147.484 21.66C146.697 22.0467 145.717 22.24 144.544 22.24ZM144.544 20.08C145.157 20.08 145.644 19.9667 146.004 19.74C146.377 19.5133 146.65 19.1667 146.824 18.7C146.997 18.2333 147.084 17.66 147.084 16.98V16.5C147.084 15.82 146.997 15.2467 146.824 14.78C146.65 14.3133 146.377 13.9667 146.004 13.74C145.644 13.5 145.157 13.38 144.544 13.38C143.944 13.38 143.457 13.5 143.084 13.74C142.724 13.9667 142.457 14.3133 142.284 14.78C142.11 15.2467 142.024 15.82 142.024 16.5V16.98C142.024 17.66 142.11 18.2333 142.284 18.7C142.457 19.1667 142.724 19.5133 143.084 19.74C143.457 19.9667 143.944 20.08 144.544 20.08ZM156.589 22.24C155.469 22.24 154.529 22.0467 153.769 21.66C153.009 21.26 152.429 20.6533 152.029 19.84C151.643 19.0133 151.449 17.98 151.449 16.74C151.449 15.4733 151.643 14.44 152.029 13.64C152.429 12.8267 153.009 12.22 153.769 11.82C154.543 11.42 155.483 11.22 156.589 11.22C157.309 11.22 157.956 11.3067 158.529 11.48C159.116 11.6533 159.623 11.92 160.049 12.28C160.476 12.64 160.796 13.0867 161.009 13.62C161.236 14.14 161.349 14.76 161.349 15.48H158.569C158.569 15 158.496 14.6067 158.349 14.3C158.203 13.9933 157.976 13.76 157.669 13.6C157.376 13.44 157.003 13.36 156.549 13.36C156.016 13.36 155.583 13.48 155.249 13.72C154.916 13.96 154.669 14.3133 154.509 14.78C154.349 15.2467 154.269 15.8267 154.269 16.52V16.98C154.269 17.66 154.349 18.2333 154.509 18.7C154.683 19.1667 154.943 19.52 155.289 19.76C155.636 19.9867 156.089 20.1 156.649 20.1C157.103 20.1 157.476 20.02 157.769 19.86C158.076 19.7 158.309 19.46 158.469 19.14C158.629 18.82 158.709 18.4333 158.709 17.98H161.349C161.349 18.66 161.236 19.2667 161.009 19.8C160.796 20.3333 160.476 20.78 160.049 21.14C159.636 21.5 159.136 21.7733 158.549 21.96C157.963 22.1467 157.309 22.24 156.589 22.24ZM168.274 22.24C167.128 22.24 166.154 22.0467 165.354 21.66C164.554 21.26 163.948 20.6533 163.534 19.84C163.121 19.0133 162.914 17.98 162.914 16.74C162.914 15.4733 163.121 14.44 163.534 13.64C163.948 12.8267 164.554 12.2267 165.354 11.84C166.154 11.44 167.128 11.24 168.274 11.24C169.448 11.24 170.428 11.44 171.214 11.84C172.014 12.2267 172.621 12.8267 173.034 13.64C173.448 14.44 173.654 15.4733 173.654 16.74C173.654 17.98 173.448 19.0133 173.034 19.84C172.621 20.6533 172.014 21.26 171.214 21.66C170.428 22.0467 169.448 22.24 168.274 22.24ZM168.274 20.08C168.888 20.08 169.374 19.9667 169.734 19.74C170.108 19.5133 170.381 19.1667 170.554 18.7C170.728 18.2333 170.814 17.66 170.814 16.98V16.5C170.814 15.82 170.728 15.2467 170.554 14.78C170.381 14.3133 170.108 13.9667 169.734 13.74C169.374 13.5 168.888 13.38 168.274 13.38C167.674 13.38 167.188 13.5 166.814 13.74C166.454 13.9667 166.188 14.3133 166.014 14.78C165.841 15.2467 165.754 15.82 165.754 16.5V16.98C165.754 17.66 165.841 18.2333 166.014 18.7C166.188 19.1667 166.454 19.5133 166.814 19.74C167.188 19.9667 167.674 20.08 168.274 20.08ZM175.7 22V7.54H178.48V22H175.7Z" fill="white"/>
</svg>
