<svg width="128" height="43" viewBox="0 0 128 43" fill="none" xmlns="http://www.w3.org/2000/svg">
<g clip-path="url(#clip0_1991_3819)">
<path fill-rule="evenodd" clip-rule="evenodd" d="M0 3.50098H15.9646L16.0429 3.50645C38.4398 5.07099 38.3483 37.8885 16.0476 39.4934L15.967 39.4992H7.63008V34.9994H15.8028C32.5176 33.7204 32.432 9.23646 15.8052 8.00075H4.49978V28.0908H15.7249C23.5069 26.8984 23.5069 15.6334 15.7249 14.441H11.8809V25.0873H7.38117V9.94118H16.0382L16.189 9.96166C29.3519 11.7501 29.3519 30.7816 16.189 32.5701L16.0382 32.5906H0V3.50098Z" fill="url(#paint0_linear_1991_3819)"/>
<circle cx="35.5017" cy="34.7498" r="4.49978" fill="url(#paint1_linear_1991_3819)"/>
</g>
<path d="M57.91 35V12.89H65.14C69.7 12.89 73.12 14.54 73.12 19.31C73.12 22.73 71.29 24.77 68.5 25.64L73.9 35H69.97L64.96 26.09H61.39V35H57.91ZM61.39 23.3H64.72C67.93 23.3 69.67 21.98 69.67 19.31C69.67 16.64 67.93 15.71 64.72 15.71H61.39V23.3ZM77.5975 35V12.89H81.0775V35H77.5975ZM86.8553 35V12.89H92.5853C99.3653 12.89 103.235 16.67 103.235 23.87C103.235 31.04 99.3653 35 92.7653 35H86.8553ZM90.3353 32.15H92.3453C97.0853 32.15 99.6353 29.36 99.6353 23.87C99.6353 18.35 97.0853 15.74 92.3453 15.74H90.3353V32.15ZM116.232 35.39C110.562 35.39 106.632 30.98 106.632 23.87C106.632 16.76 110.562 12.5 116.232 12.5C121.902 12.5 125.862 16.76 125.862 23.87C125.862 30.98 121.902 35.39 116.232 35.39ZM116.232 32.36C119.892 32.36 122.292 29.03 122.292 23.87C122.292 18.68 119.892 15.53 116.232 15.53C112.572 15.53 110.202 18.68 110.202 23.87C110.202 29.03 112.572 32.36 116.232 32.36Z" fill="white"/>
<defs>
<linearGradient id="paint0_linear_1991_3819" x1="38.547" y1="-4" x2="0.467417" y2="36.9348" gradientUnits="userSpaceOnUse">
<stop offset="0.25" stop-color="#F8EFEA"/>
<stop offset="0.828125" stop-color="#235AE9"/>
</linearGradient>
<linearGradient id="paint1_linear_1991_3819" x1="41.5761" y1="28.3748" x2="32.16" y2="39.4815" gradientUnits="userSpaceOnUse">
<stop offset="0.25" stop-color="#F8EFEA"/>
<stop offset="0.828125" stop-color="#235AE9"/>
</linearGradient>
<clipPath id="clip0_1991_3819">
<rect width="40" height="40" fill="white" transform="translate(0 1.5)"/>
</clipPath>
</defs>
</svg>
