<svg width="200" height="60" viewBox="0 0 200 60" fill="none" xmlns="http://www.w3.org/2000/svg">
<path d="M25.9681 40.4486C26.4166 40.9414 26.8254 41.3947 27.5147 41.4184C27.6653 41.4232 27.8032 41.6038 27.9616 41.6641C28.1898 41.7496 28.4307 41.8289 28.6494 41.9113C29.0265 42.0539 29.4465 41.9414 29.7999 42.187C29.9694 42.3043 30.2198 42.3233 30.4369 42.3502C30.5922 42.3708 30.7158 42.4342 30.8537 42.4881C31.0755 42.5737 31.3275 42.6339 31.5605 42.6973C32.0945 42.8431 32.6238 42.8098 33.1578 42.8383C33.2672 42.8447 33.3733 42.9461 33.4716 42.9984C33.6808 42.8843 33.8662 42.7163 34.069 42.6894C34.3036 42.6577 34.5935 42.5657 34.7932 42.8256C35.0499 42.7258 35.359 42.542 35.5808 42.6925C36.0879 43.0364 36.4651 42.7258 36.8787 42.5436C36.9183 42.5848 36.95 42.6339 36.9944 42.6545C37.0371 42.6751 37.1037 42.6878 37.1433 42.6687C37.5363 42.4865 37.9103 42.2108 38.373 42.5055C38.4301 42.542 38.5664 42.4818 38.6535 42.4406C38.896 42.3249 39.1321 42.1965 39.3128 42.103C39.5188 42.1395 39.7374 42.2488 39.8325 42.1823C40.2461 41.8907 40.72 41.8843 41.1906 41.8621C41.3301 41.5832 41.4505 41.3408 41.5171 41.2077C41.8372 40.8701 42.0685 41.3075 42.3966 41.1158C42.6311 40.9779 43.0098 41.0888 43.2317 41.0888C43.6659 40.9097 43.9781 40.7069 44.0922 40.3076C44.547 40.1919 44.9606 40.6435 45.3694 40.428C45.8306 39.8908 46.2537 39.3948 46.7022 38.8734C47.1586 38.8005 47.653 38.5644 48.2599 38.6531C48.4105 38.482 48.6117 38.2522 48.7749 38.0668H49.2012C49.2234 37.9163 49.244 37.7705 49.2678 37.6136C49.515 37.6722 49.7416 37.7245 50.0395 37.7942C49.9761 37.3664 50.0775 37.1128 50.4991 37.116C50.5498 37.116 50.5926 36.975 50.6575 36.9211C50.7479 36.8482 50.8556 36.7959 50.9586 36.7341C50.9713 36.4853 51.0268 36.2365 50.7685 36.0305C50.6702 35.9513 50.6829 35.731 50.6227 35.4822C51.4531 35.7785 51.2058 36.4663 51.3643 37.1144C51.6147 36.6596 51.7938 36.3363 51.9823 35.994H52.4974C52.5592 35.7833 52.6115 35.6026 52.659 35.441C52.4593 35.3633 52.2565 35.2841 52.0521 35.2049C52.4213 35.105 52.6844 34.9735 52.7905 34.5979C52.8143 34.5108 52.9791 34.4632 53.1518 34.3507C53.1788 34.7976 53.2438 35.1573 53.0631 35.5202C53.1598 35.5915 53.258 35.6644 53.3943 35.7658C53.6621 35.4109 53.903 35.0908 54.1391 34.777C54.0662 34.628 54.0028 34.4981 53.9442 34.3777C54.044 34.2762 54.1185 34.2018 54.193 34.1273C54.2706 34.1827 54.3467 34.2382 54.4751 34.3317C54.5892 34.1891 54.6922 34.0607 54.7936 33.9339C54.7096 33.8389 54.6589 33.7818 54.6018 33.7184C54.9235 33.4823 54.9647 32.9863 55.3926 32.8373C55.4972 32.8516 55.5954 32.8659 55.6715 32.8754C55.7016 33.0544 55.7254 33.1939 55.7729 33.4744C56.0043 33.2082 56.1453 33.0433 56.2816 32.8849C56.3371 32.9261 56.3862 32.9609 56.4337 32.9958L56.3402 32.8326C56.4528 32.8199 56.5637 32.8072 56.6762 32.7945C56.6556 32.7565 56.6366 32.7169 56.616 32.6789H55.9536C56.0455 32.4966 56.0978 32.3905 56.1453 32.2954C56.0851 32.1765 56.0201 32.0466 55.9536 31.915C55.6889 32.0228 55.6921 32.251 55.6984 32.4871C55.7 32.5553 55.662 32.625 55.6287 32.7391C55.4956 32.5442 55.391 32.3889 55.2833 32.2304C55.2468 32.3239 55.2104 32.4158 55.1802 32.4935C54.8237 32.5473 54.4766 32.6012 54.0519 32.6662C54.2041 32.3651 54.3118 32.1559 54.4259 31.9309H53.7952C53.876 32.0434 53.9315 32.1195 53.9775 32.1829C53.8269 32.6234 53.575 32.8817 53.1075 32.8532C53.0885 32.8532 53.0647 32.9182 53.0869 32.8817C53.1122 33.0703 53.1297 33.1923 53.1487 33.3238C53.0552 33.3238 53.0203 33.3349 53.0045 33.3223C52.808 33.1622 52.6146 32.999 52.4371 32.8516C52.0949 32.8152 51.9728 32.9831 51.8778 33.27C51.8001 33.5061 51.3992 33.4712 51.3881 33.8214C51.2486 33.682 51.1567 33.5885 51.0363 33.468C50.9301 33.6329 50.8287 33.7913 50.7289 33.9466C50.6766 33.9007 50.6211 33.8531 50.5862 33.823C50.1901 34.0575 49.8097 34.2826 49.4136 34.5171C49.393 34.7405 49.3977 34.9846 49.0586 35.0813C48.8542 35.1383 48.6862 35.3285 48.4247 35.5139C48.2029 35.5582 47.8637 35.6264 47.5294 35.6929C47.5056 35.9433 47.4866 36.1414 47.4644 36.3855C47.2568 36.2904 47.1063 36.2206 46.951 36.1493C46.7814 36.3886 46.634 36.5962 46.5072 36.7769C46.3646 36.7087 46.2759 36.6659 46.1998 36.6295C45.8686 36.9068 45.6468 37.2887 45.1745 37.2919C45.0889 37.2919 44.9939 37.368 44.9194 37.4282C44.5232 37.7467 44.1334 38.0732 43.7435 38.3948C43.6088 38.3948 43.4187 38.3394 43.3553 38.4044C43.0986 38.6722 42.8086 38.7419 42.4504 38.7245C42.3015 38.7165 42.1303 38.8417 41.9956 38.9431C41.796 39.0937 41.6676 39.3441 41.3887 39.3869C41.2603 39.9843 40.9513 39.539 40.7136 39.5041C40.1542 39.7434 39.6566 40.1016 39.0243 40.2014C38.6567 40.26 38.2336 40.3028 37.9372 40.6134C37.4286 40.6007 37.0482 41.1189 36.5443 40.9256C36.4128 41.0587 36.3193 41.1522 36.2194 41.252C35.6933 41.2267 35.1625 41.2203 34.6839 41.5214C34.6284 41.5563 34.5048 41.5737 34.4795 41.5436C34.3226 41.363 34.2116 41.3915 34.0231 41.5262C33.9391 41.5864 33.7172 41.4137 33.5572 41.4137C32.9439 41.4105 32.3718 41.2885 31.86 40.9319C31.7855 40.8796 31.7062 40.8194 31.6207 40.802C30.906 40.6578 30.1326 40.3519 29.7301 39.9304C29.5495 39.7418 29.1834 39.745 29.1692 39.3916C28.8681 39.2934 28.5654 39.1951 28.2738 39.1C28.3229 39.0366 28.3816 38.959 28.4671 38.8449C28.361 38.7387 28.2865 38.5977 28.1819 38.5692C27.7208 38.444 27.5956 38.0668 27.4672 37.6833C27.4434 37.6136 27.4482 37.528 27.4102 37.4694C27.174 37.1176 26.9332 36.769 26.6875 36.4235C26.4419 36.0764 26.3595 35.6613 26.2105 35.2746C26.0315 34.8119 25.873 34.3365 25.8873 33.8246C25.8952 33.5124 25.8873 33.2002 25.8873 32.9752C25.5355 32.5426 25.1995 33.2494 24.8857 32.8706H23.7305C23.4991 33.1036 23.2757 33.327 23.0443 33.56C23.0443 33.8135 22.9382 34.1685 23.0665 34.3206C23.3106 34.609 22.8764 34.7707 23.0364 35.0052C23.0998 35.0987 23.084 35.2476 23.1093 35.3697C23.1917 35.7579 23.2757 36.1462 23.3581 36.5328C22.9794 36.8973 23.3676 37.2285 23.4167 37.5676C23.4579 37.8545 23.6132 38.1239 23.6671 38.4091C23.7464 38.8322 23.9444 39.1476 24.301 39.3583C24.4072 39.2981 24.4864 39.2537 24.5831 39.1983C24.6718 39.4582 24.7606 39.7117 24.854 39.9875C25.3786 39.8417 25.4562 40.4518 25.8302 40.5833C25.8667 40.5453 25.9047 40.5088 25.9681 40.4454V40.4486ZM45.1301 25.2213C45.1301 24.9345 45.1095 24.6952 45.1365 24.4623C45.1634 24.2182 45.249 23.9789 45.2854 23.7349C45.3504 23.3118 45.2934 22.8284 45.4788 22.4719C45.783 21.8855 45.7609 21.2945 45.7577 20.6875C45.7561 20.3436 45.8068 20.033 46.0778 19.7732C46.0778 19.4958 46.0746 19.2074 46.0778 18.919C46.081 18.591 45.9352 18.3295 45.6959 18.1314C45.4851 17.9571 45.2442 17.8177 44.9828 17.6402H44.3045C43.7832 17.8731 43.4726 18.3438 42.9464 18.4943C42.8355 18.526 42.7309 18.6575 42.6723 18.7685C42.6057 18.8952 42.5962 19.0521 42.5598 19.1979C42.1113 19.1916 42.1842 19.705 41.8942 19.8556C41.6834 20.4974 41.4489 21.1344 41.5028 21.8285C41.0781 22.2532 40.8372 22.7032 41.1732 23.3149C41.2603 23.4734 41.1859 23.7206 41.1859 23.8949C41.0607 24.0201 40.9672 24.1136 40.9307 24.1517C40.7469 24.505 41.0131 24.6191 41.1336 24.8109C41.2001 24.9171 41.1653 25.0866 41.1779 25.2292C40.9925 25.2403 40.8673 25.2483 40.7089 25.2578C40.72 25.486 40.7279 25.6825 40.7374 25.8774C40.7833 25.9027 40.8277 25.9297 40.8737 25.955C40.9466 25.8172 41.0195 25.6809 41.1035 25.5256C41.1748 25.6809 41.2223 25.7871 41.2778 25.9075C41.4125 25.8409 41.5123 25.7918 41.5297 25.7823C41.6597 25.8473 41.7484 25.8916 41.7991 25.917C41.6739 26.161 41.5741 26.3575 41.479 26.5445C41.8467 26.9122 41.601 27.1515 41.3475 27.3765C41.5202 27.5746 41.6819 27.76 41.9624 27.3828V28.0262C42.4504 28.2132 42.7595 28.6807 43.3046 28.5761C43.3505 28.5666 43.4219 28.6696 43.4741 28.7267C43.6611 28.9295 43.8418 28.9501 44.0779 28.7774C44.1524 28.7219 44.3267 28.8043 44.482 28.8265C44.5058 28.8027 44.5929 28.7552 44.612 28.6886C44.8306 27.9422 44.8623 27.1784 44.7926 26.4083C44.7894 26.3686 44.6864 26.3052 44.6912 26.3005C44.9146 26.0042 44.7815 25.6619 44.8227 25.3449C44.8275 25.3085 44.8893 25.2784 44.9305 25.2403C44.9701 25.2372 45.0208 25.2308 45.1349 25.2197L45.1301 25.2213ZM29.5606 28.2544C29.8934 28.2497 30.1834 28.256 30.4765 28.3986C30.7142 28.5143 31.0629 28.6363 31.2594 28.5428C31.5795 28.3891 31.8156 28.7314 32.1103 28.5888C32.2561 28.4192 32.4019 28.2497 32.5747 28.05C32.4114 27.9248 32.2862 27.8297 32.188 27.7552C32.226 26.7981 32.0897 25.8869 32.3512 24.9963C32.2007 24.0344 32.7648 23.1533 32.6666 22.1961C32.9249 21.4418 33.0025 20.6638 32.9835 19.8714C32.974 19.4499 32.9819 19.0268 32.9819 18.6037C32.9819 18.4721 32.9265 18.2836 32.9914 18.217C33.3226 17.8795 33.0295 17.6196 32.9154 17.3248C32.5002 17.2915 32.0517 17.4072 31.6872 17.0633C31.6127 16.992 31.4464 17.0079 31.3228 17.0047C31.0597 16.9968 30.7982 17.0015 30.5367 17.0015C30.3582 17.2318 30.3328 17.4722 30.4607 17.7226C30.3688 17.8113 30.2404 17.8858 30.1881 17.9967C30.074 18.2376 30.1834 18.526 29.9219 18.77C29.7396 18.9428 29.7286 19.3136 29.6747 19.6036C29.643 19.7779 29.624 19.93 29.5321 20.1028C29.4243 20.304 29.4069 20.6035 29.3213 20.8048C29.204 21.0789 29.2848 21.2548 29.3435 21.4815C29.3577 21.5385 29.2579 21.6272 29.2119 21.6986C29.3245 21.8095 29.4164 21.9014 29.5035 21.9854C28.857 22.2675 28.7619 22.8839 28.5939 23.5241H29.8331C29.5305 23.7713 29.3546 23.9155 29.1565 24.0788V24.925H28.7651C28.7001 25.1215 28.6367 25.3322 28.5622 25.5367C28.4798 25.7601 28.8459 25.9772 28.5511 26.2086C28.7666 26.5128 28.9822 26.8171 29.2056 27.1325C29.147 27.237 29.0883 27.3432 29.0234 27.4605C29.1913 27.7109 29.3577 27.9581 29.5606 28.256V28.2544Z" fill="url(#paint0_linear_10996_232)"/>
<path d="M45.1292 25.2211C45.0151 25.2322 44.9644 25.237 44.9247 25.2417C44.8835 25.2797 44.8217 25.3099 44.817 25.3463C44.7758 25.6648 44.9105 26.0055 44.6854 26.3019C44.6807 26.3082 44.7837 26.37 44.7869 26.4096C44.8566 27.1798 44.8249 27.9436 44.6062 28.69C44.5872 28.7566 44.5 28.8041 44.4763 28.8279C44.321 28.8041 44.1467 28.7233 44.0722 28.7787C43.8376 28.9515 43.657 28.9309 43.4684 28.728C43.4161 28.671 43.3448 28.5696 43.2988 28.5775C42.7537 28.6821 42.4447 28.2162 41.9566 28.0276V27.3842C41.6761 27.763 41.5145 27.5775 41.3418 27.3779C41.5969 27.1528 41.8425 26.912 41.4733 26.5459C41.57 26.3589 41.6698 26.1624 41.7934 25.9184C41.7411 25.893 41.6524 25.8486 41.524 25.7837C41.5066 25.7916 41.4067 25.8423 41.272 25.9089C41.2166 25.7884 41.169 25.6823 41.0977 25.527C41.0153 25.6823 40.9424 25.8185 40.8679 25.9564C40.822 25.9311 40.7776 25.9041 40.7316 25.8788C40.7221 25.6823 40.7142 25.4873 40.7031 25.2591C40.8632 25.2496 40.9868 25.2417 41.1722 25.2306C41.1611 25.088 41.196 24.9184 41.1278 24.8123C41.0058 24.6205 40.7412 24.508 40.925 24.153C40.963 24.115 41.0549 24.0215 41.1801 23.8963C41.1801 23.722 41.2546 23.4748 41.1674 23.3163C40.8331 22.7046 41.0739 22.2546 41.4971 21.8299C41.4432 21.1358 41.6777 20.4987 41.8885 19.8569C42.1769 19.7064 42.1056 19.1914 42.554 19.1993C42.5889 19.0535 42.6 18.8982 42.6666 18.7698C42.7252 18.6589 42.8298 18.5258 42.9407 18.4957C43.4668 18.3467 43.7774 17.8745 44.2988 17.6415H44.977C45.2385 17.819 45.4794 17.9569 45.6901 18.1328C45.9294 18.3309 46.0752 18.5924 46.0721 18.9204C46.0689 19.2088 46.0721 19.4972 46.0721 19.7745C45.8011 20.0328 45.7504 20.345 45.7519 20.6889C45.7551 21.2958 45.7789 21.8869 45.473 22.4733C45.2876 22.8298 45.3447 23.3131 45.2797 23.7363C45.2417 23.9803 45.1577 24.218 45.1307 24.4636C45.1054 24.6966 45.1244 24.9359 45.1244 25.2227L45.1292 25.2211Z" fill="url(#paint1_linear_10996_232)"/>
<path d="M29.5615 28.2544C29.3603 27.9549 29.1939 27.7077 29.0243 27.4589C29.0893 27.3416 29.1479 27.2355 29.2066 27.1309C28.9831 26.8155 28.7676 26.5097 28.5521 26.207C28.8468 25.9772 28.4808 25.7585 28.5632 25.5351C28.6393 25.3307 28.7011 25.1199 28.766 24.9234H29.1574V24.0772C29.3555 23.9155 29.5314 23.7713 29.8341 23.5225H28.5949C28.7613 22.8823 28.8564 22.2659 29.5045 21.9838C29.4189 21.8998 29.3254 21.8063 29.2129 21.697C29.2589 21.6257 29.3587 21.5385 29.3444 21.4799C29.2858 21.2533 29.2066 21.0774 29.3223 20.8032C29.4078 20.6019 29.4253 20.3024 29.533 20.1012C29.6249 19.9285 29.6439 19.7763 29.6756 19.602C29.7295 19.3136 29.7406 18.9412 29.9229 18.7685C30.1827 18.5228 30.0734 18.236 30.1891 17.9951C30.2414 17.8842 30.3697 17.8097 30.4616 17.721C30.3338 17.4717 30.3592 17.2313 30.5377 16.9999C30.7992 16.9999 31.0607 16.9952 31.3237 17.0031C31.4489 17.0063 31.6137 16.992 31.6882 17.0618C32.0511 17.4056 32.5011 17.2899 32.9163 17.3232C33.032 17.618 33.3236 17.8779 32.9924 18.2154C32.9274 18.282 32.9829 18.4705 32.9829 18.6021C32.9829 19.0252 32.975 19.4467 32.9845 19.8698C33.0035 20.6622 32.9258 21.4402 32.6675 22.1946C32.7658 23.1501 32.2016 24.0312 32.3522 24.9947C32.0907 25.8853 32.227 26.7965 32.189 27.7537C32.2872 27.8281 32.4124 27.9232 32.5756 28.0484C32.4029 28.2481 32.2571 28.4176 32.1113 28.5872C31.8181 28.7298 31.5804 28.3875 31.2603 28.5412C31.0622 28.6363 30.7152 28.5127 30.4775 28.397C30.1843 28.2544 29.8943 28.2497 29.5615 28.2528V28.2544Z" fill="url(#paint2_linear_10996_232)"/>
<path d="M29.3199 28.6197C29.0571 28.3105 28.8398 28.0553 28.6184 27.7985C28.7032 27.6774 28.7798 27.5678 28.8563 27.4598C28.5646 27.1343 28.2831 26.8186 28.0017 26.5061C28.3866 26.2689 27.9086 26.0431 28.0162 25.8125C28.1155 25.6014 28.1962 25.3839 28.2811 25.181H28.7922V24.3074C29.0509 24.1406 29.2805 23.9917 29.6758 23.7349H28.0576C28.2749 23.074 28.399 22.4376 29.2454 22.1464C29.1336 22.0597 29.0115 21.9632 28.8646 21.8503C28.9246 21.7767 29.055 21.6867 29.0364 21.6262C28.9598 21.3922 28.8563 21.2107 29.0074 20.9276C29.1191 20.7199 29.1419 20.4107 29.2826 20.2029C29.4026 20.0246 29.4275 19.8676 29.4689 19.6876C29.5392 19.3899 29.5537 19.0055 29.7917 18.8271C30.131 18.5736 29.9882 18.2775 30.1393 18.0288C30.2076 17.9143 30.3752 17.8374 30.4952 17.7458C30.3283 17.4884 30.3614 17.2403 30.5946 17.0015C30.936 17.0015 31.2774 16.9966 31.6209 17.0047C31.7844 17.008 31.9996 16.9933 32.0969 17.0653C32.5707 17.4203 33.1584 17.3008 33.7006 17.3352C33.8516 17.6395 34.2324 17.9078 33.7999 18.2562C33.7151 18.3249 33.7875 18.5196 33.7875 18.6554C33.7875 19.0922 33.7771 19.5273 33.7896 19.9641C33.8144 20.7821 33.713 21.5853 33.3757 22.364C33.504 23.3504 32.7673 24.26 32.9639 25.2546C32.6225 26.174 32.8004 27.1147 32.7508 28.1028C32.8791 28.1796 33.0425 28.2778 33.2557 28.407C33.0301 28.6132 32.8397 28.7882 32.6494 28.9632C32.2666 29.1105 31.9562 28.7571 31.5382 28.9158C31.2795 29.014 30.8263 28.8864 30.5159 28.7669C30.1331 28.6197 29.7544 28.6148 29.3199 28.6181V28.6197Z" fill="url(#paint3_linear_10996_232)"/>
<path d="M45.9462 25.082C45.8187 25.0939 45.7621 25.0989 45.7178 25.104C45.6717 25.1446 45.6027 25.1767 45.5974 25.2155C45.5513 25.5552 45.7018 25.9185 45.4504 26.2344C45.4451 26.2412 45.5602 26.3071 45.5637 26.3493C45.6416 27.1706 45.6062 27.985 45.3618 28.7809C45.3406 28.8518 45.2432 28.9025 45.2166 28.9279C45.0431 28.9025 44.8483 28.8164 44.765 28.8755C44.5029 29.0597 44.301 29.0377 44.0903 28.8214C44.0318 28.7606 43.9522 28.6525 43.9008 28.6609C43.2916 28.7724 42.9463 28.2756 42.4008 28.0746V27.3885C42.0874 27.7924 41.9067 27.5947 41.7137 27.3818C41.9988 27.1418 42.2733 26.885 41.8607 26.4947C41.9687 26.2953 42.0803 26.0857 42.2184 25.8255C42.16 25.7985 42.0608 25.7512 41.9173 25.6819C41.8979 25.6903 41.7863 25.7444 41.6358 25.8154C41.5738 25.687 41.5207 25.5738 41.441 25.4082C41.3489 25.5738 41.2674 25.7191 41.1842 25.8661C41.1328 25.839 41.0832 25.8103 41.0319 25.7833C41.0213 25.5738 41.0124 25.3659 41 25.1226C41.1789 25.1125 41.317 25.104 41.5242 25.0922C41.5118 24.9401 41.5508 24.7593 41.4746 24.6461C41.3382 24.4416 41.0425 24.3217 41.2479 23.9432C41.2904 23.9026 41.3931 23.8029 41.5331 23.6694C41.5331 23.4835 41.6163 23.2199 41.5189 23.051C41.1452 22.3987 41.4144 21.9188 41.8872 21.466C41.827 20.7259 42.0891 20.0466 42.3247 19.3623C42.647 19.2017 42.5673 18.6526 43.0685 18.661C43.1074 18.5056 43.1198 18.34 43.1942 18.2031C43.2597 18.0848 43.3766 17.9429 43.5006 17.9108C44.0885 17.7519 44.4356 17.2484 45.0183 17H45.7762C46.0684 17.1893 46.3376 17.3363 46.5731 17.5238C46.8406 17.735 47.0035 18.0138 46.9999 18.3636C46.9964 18.6712 46.9999 18.9787 46.9999 19.2744C46.6971 19.5498 46.6404 19.8827 46.6422 20.2494C46.6458 20.8965 46.6723 21.5268 46.3305 22.152C46.1233 22.5322 46.1871 23.0476 46.1145 23.4987C46.072 23.759 45.9781 24.0124 45.948 24.2743C45.9197 24.5227 45.9409 24.7779 45.9409 25.0837L45.9462 25.082Z" fill="url(#paint4_linear_10996_232)"/>
<path fill-rule="evenodd" clip-rule="evenodd" d="M50.8455 36.0722C50.8499 36.0766 50.8546 36.0807 50.8595 36.0845C51.0949 36.2663 51.079 36.4798 51.063 36.6961C51.0608 36.725 51.0587 36.7539 51.0571 36.7828C51.0224 36.8032 50.9872 36.8223 50.9523 36.8412C50.8794 36.8807 50.8076 36.9195 50.7442 36.9684C50.7139 36.9916 50.6887 37.0328 50.6651 37.0712C50.636 37.1187 50.6095 37.1619 50.5795 37.1619C50.1413 37.1587 50.0359 37.4104 50.1018 37.835C49.9919 37.8104 49.8913 37.7879 49.7958 37.7664C49.6222 37.7274 49.4654 37.6922 49.2996 37.6557C49.2854 37.7515 49.2712 37.8426 49.2571 37.9336C49.2482 37.9905 49.2393 38.0474 49.2304 38.1055H48.7874C48.6944 38.2064 48.5896 38.3204 48.488 38.4309C48.4043 38.522 48.3228 38.6107 48.252 38.6874C47.8112 38.6259 47.4266 38.7218 47.0736 38.8099C46.9215 38.8478 46.7753 38.8843 46.6329 38.9061C46.5 39.0542 46.3689 39.2002 46.2383 39.3457C45.9126 39.7086 45.5898 40.0684 45.2477 40.449C45.0212 40.563 44.7933 40.4884 44.5583 40.4116C44.3523 40.3442 44.1409 40.2751 43.9201 40.3294C43.8015 40.7258 43.4753 40.9255 43.0257 41.1048C42.96 41.1048 42.8809 41.0959 42.7958 41.0863C42.5823 41.0621 42.3308 41.0337 42.1576 41.1315C42.0036 41.2182 41.8701 41.1768 41.7393 41.1363C41.5806 41.0871 41.4259 41.0391 41.2435 41.2228C41.1743 41.3564 41.0491 41.5955 40.9042 41.8723C40.8759 41.8737 40.8476 41.875 40.8194 41.8763C40.3568 41.8976 39.8962 41.9188 39.4926 42.19C39.4264 42.2342 39.3026 42.2002 39.1638 42.162C39.0953 42.1432 39.0231 42.1233 38.9523 42.1114C38.8961 42.1389 38.8344 42.17 38.7687 42.203C38.6171 42.2793 38.4441 42.3663 38.2671 42.4464C38.1765 42.4873 38.0365 42.547 37.9756 42.5109C37.5625 42.2605 37.2194 42.4249 36.873 42.5908C36.8147 42.6188 36.7562 42.6468 36.6974 42.6729C36.6562 42.6917 36.587 42.6792 36.5425 42.6587C36.5107 42.6435 36.4851 42.6156 36.4588 42.5868C36.447 42.5739 36.435 42.5608 36.4223 42.5486C36.3495 42.5792 36.2779 42.6135 36.2064 42.6476C35.8558 42.8152 35.5112 42.98 35.0733 42.6965C34.8823 42.5727 34.6291 42.6766 34.3961 42.7723C34.3479 42.7921 34.3005 42.8116 34.2547 42.8286C34.0761 42.6048 33.8255 42.6438 33.6021 42.6786C33.5679 42.6839 33.5344 42.6891 33.5019 42.6933C33.357 42.7117 33.2207 42.7962 33.079 42.884C33.0145 42.924 32.9489 42.9646 32.881 43C32.8492 42.9839 32.8168 42.963 32.7838 42.9417C32.7106 42.8946 32.6343 42.8455 32.5548 42.8412C32.4134 42.8339 32.2723 42.8306 32.1313 42.8273C31.7191 42.8175 31.3082 42.8078 30.8945 42.7012C30.8436 42.6879 30.7917 42.6747 30.7393 42.6614C30.544 42.6118 30.3417 42.5605 30.1599 42.4936C30.1278 42.4816 30.0965 42.4691 30.0654 42.4567C29.9575 42.4135 29.852 42.3714 29.7267 42.3567C29.6997 42.3534 29.6722 42.3502 29.6445 42.3469C29.4391 42.3229 29.2198 42.2973 29.0645 42.1947C28.8492 42.0518 28.61 42.0305 28.37 42.0092C28.2007 41.9941 28.0309 41.979 27.8687 41.9211C27.7542 41.8799 27.6337 41.8394 27.5121 41.7986C27.3924 41.7584 27.2715 41.7178 27.1539 41.6757C27.0844 41.6505 27.019 41.604 26.9547 41.5584C26.8667 41.4958 26.7808 41.4347 26.6894 41.4319C25.9769 41.4085 25.5544 40.9652 25.0897 40.4778L25.0818 40.4694L24.9417 40.6031C24.7892 40.5519 24.6841 40.4275 24.5798 40.304C24.4182 40.1129 24.2584 39.9238 23.9271 40.0117C23.8283 39.7381 23.7377 39.4864 23.6455 39.2285C23.6161 39.2444 23.5882 39.2594 23.5606 39.2743C23.4951 39.3096 23.431 39.3442 23.3523 39.3873C22.9817 39.1782 22.7758 38.8652 22.6934 38.4452C22.6671 38.3116 22.6172 38.1821 22.5674 38.0528C22.5111 37.9068 22.455 37.7611 22.4332 37.6101C22.418 37.5063 22.3693 37.4035 22.3205 37.3003C22.2103 37.0673 22.0993 36.8327 22.3722 36.5831C22.3644 36.5488 22.3567 36.5145 22.3489 36.4802C22.2694 36.1294 22.1901 35.7797 22.1136 35.4287C22.1046 35.3873 22.1006 35.3431 22.0966 35.2989C22.0889 35.2138 22.0812 35.1291 22.0378 35.0669C21.9615 34.9601 22.0153 34.8681 22.0713 34.7724C22.1373 34.6596 22.2064 34.5415 22.0691 34.3875C21.976 34.2833 22.0004 34.0841 22.0245 33.8874C22.0353 33.799 22.0461 33.7111 22.0461 33.6325C22.1663 33.5169 22.1966 33.2253 22.5 33C22.5853 32.9367 22.9636 32.6935 23.0448 32.6325C23.0448 32.7085 23.0549 32.5471 23.0448 32.6325C23.1616 32.5169 23.2764 32.4037 23.3912 32.2904C23.506 32.1772 23.6208 32.064 23.7376 31.9484H24.9009C25.055 32.1304 25.2137 32.0598 25.3767 31.9873C25.5503 31.9101 25.7289 31.8307 25.9121 32.0522C25.9121 32.1211 25.9127 32.1983 25.9134 32.2812C25.9148 32.4668 25.9165 32.681 25.9121 32.8952C25.8977 33.4032 26.0577 33.875 26.2385 34.3343C26.2826 34.4464 26.3208 34.5612 26.3591 34.6761C26.4512 34.9531 26.5437 35.2311 26.7201 35.4745C26.9682 35.8174 27.2114 36.1634 27.4498 36.5126C27.473 36.5469 27.4805 36.5916 27.488 36.6372C27.4929 36.6669 27.4979 36.697 27.5074 36.7249L27.5083 36.7277C27.6376 37.1074 27.7646 37.4802 28.229 37.6041C28.3005 37.6232 28.358 37.6928 28.421 37.769C28.4511 37.8053 28.4824 37.8432 28.517 37.8778C28.429 37.991 28.3698 38.0681 28.3218 38.131C28.6172 38.2251 28.9205 38.3224 29.2239 38.4197L29.2259 38.4204C29.2342 38.649 29.3948 38.7272 29.5562 38.8059C29.6424 38.8478 29.7288 38.8899 29.7923 38.9551C30.1987 39.3735 30.9795 39.677 31.7012 39.8201C31.78 39.8359 31.8535 39.887 31.9228 39.9353C31.9295 39.9399 31.9362 39.9445 31.9428 39.9491C32.4596 40.3014 33.0372 40.4225 33.6565 40.4272C33.7302 40.4272 33.8168 40.4629 33.8973 40.496C33.9934 40.5355 34.0808 40.5714 34.1269 40.5389C34.3173 40.4052 34.4293 40.3769 34.5877 40.5562C34.6149 40.5861 34.7397 40.5688 34.7941 40.5342C35.2774 40.2353 35.8134 40.2416 36.3446 40.2668C36.4454 40.1677 36.5398 40.0749 36.6726 39.9428C36.9605 40.0523 37.2084 39.9347 37.4624 39.8142C37.6574 39.7217 37.856 39.6275 38.0791 39.633C38.3532 39.349 38.7387 39.2906 39.0879 39.2377C39.1178 39.2331 39.1475 39.2286 39.1767 39.224C39.6119 39.1554 39.984 38.9684 40.3556 38.7816C40.5292 38.6943 40.7026 38.6071 40.8824 38.532C40.9502 38.5418 41.0237 38.584 41.0972 38.6263C41.2841 38.7337 41.471 38.8411 41.5641 38.4156C41.7555 38.3868 41.8767 38.2634 41.998 38.14C42.0551 38.0818 42.1123 38.0236 42.1769 37.9753C42.3113 37.8746 42.4857 37.7519 42.6361 37.7582C42.9977 37.7755 43.2905 37.7063 43.5497 37.4405C43.5934 37.3955 43.6957 37.4075 43.8 37.4196C43.8487 37.4253 43.8979 37.4311 43.9418 37.4311C44.0366 37.3542 44.1314 37.2771 44.2263 37.1999C44.5254 36.9568 44.8254 36.7129 45.129 36.4717C45.2042 36.4119 45.3002 36.3364 45.3866 36.3364C45.7427 36.3329 45.9578 36.1216 46.1831 35.9001C46.2596 35.825 46.3372 35.7487 46.4219 35.679C46.4468 35.6908 46.4732 35.7032 46.5022 35.7169C46.5627 35.7454 46.6351 35.7796 46.7323 35.8253C46.7863 35.7503 46.8439 35.6701 46.9054 35.5845C46.9898 35.4672 47.0813 35.3398 47.1803 35.2025C47.2158 35.2185 47.251 35.2343 47.2866 35.2504C47.4083 35.3053 47.5353 35.3626 47.6987 35.4368C47.7117 35.305 47.7228 35.1869 47.7341 35.0672C47.7437 34.9657 47.7533 34.8629 47.7644 34.7495C48 34.7034 48.2379 34.6565 48.4364 34.6175C48.5222 34.6005 48.6007 34.5851 48.6684 34.5718C48.7559 34.5108 48.833 34.4493 48.9045 34.3923C49.0488 34.2772 49.1704 34.1803 49.3084 34.1424C49.6268 34.0547 49.645 33.8392 49.6627 33.6298C49.664 33.614 49.6654 33.5982 49.6668 33.5825C50.0685 33.3497 50.4525 33.1264 50.8509 32.8936C50.8846 32.921 50.9332 32.963 50.9817 33.0049L50.9949 33.0163C51.0349 32.9552 51.0751 32.8936 51.1158 32.8313C51.1777 32.7365 51.2406 32.64 51.3053 32.5413C51.4251 32.6607 51.5194 32.7533 51.6598 32.8913L51.6605 32.8921C51.667 32.6922 51.8023 32.6186 51.9315 32.5483C52.0282 32.4957 52.1214 32.445 52.155 32.3447C52.2494 32.0601 52.3742 31.8933 52.7198 31.9295C52.899 32.0774 53.0942 32.2378 53.2926 32.3966C53.3023 32.4042 53.319 32.4032 53.3516 32.4012C53.3729 32.3999 53.4009 32.3982 53.4382 32.3982C53.4206 32.2677 53.403 32.1466 53.3758 31.9594C53.3534 31.9956 53.3758 31.9295 53.3966 31.9311C53.8686 31.9594 54.1231 31.7046 54.2751 31.2658C54.2558 31.2394 54.2341 31.21 54.2091 31.1762C54.1762 31.1316 54.1375 31.0793 54.0911 31.0157H54.7279C54.6127 31.2391 54.5055 31.4467 54.3503 31.7455C54.5393 31.7172 54.7127 31.691 54.8781 31.666C55.0893 31.634 55.2877 31.604 55.4895 31.5741C55.514 31.5139 55.5404 31.4472 55.5679 31.3776C55.5764 31.3563 55.5849 31.3347 55.5935 31.313C55.6347 31.3725 55.6754 31.4315 55.7173 31.4924C55.7863 31.5925 55.8588 31.6976 55.9423 31.8178C55.9539 31.779 55.966 31.7453 55.9768 31.715C55.9976 31.6573 56.0138 31.6122 56.0128 31.5678C56.0064 31.3334 56.0015 31.1069 56.2704 31C56.3032 31.0637 56.3356 31.127 56.3672 31.1889C56.4005 31.2538 56.4328 31.3171 56.464 31.3775C56.4413 31.4227 56.4173 31.4697 56.3886 31.5258C56.3565 31.5885 56.3185 31.6625 56.2704 31.7581H56.9392C56.9496 31.777 56.9596 31.7962 56.9696 31.8155C56.9796 31.8348 56.9896 31.854 57 31.8729L56.6608 31.9106L56.7552 32.0726C56.7362 32.0589 56.717 32.0453 56.6972 32.0312C56.6669 32.0097 56.6354 31.9873 56.6016 31.9625C56.5295 32.0441 56.4561 32.1279 56.3689 32.2273C56.396 32.2788 56.4225 32.3291 56.4482 32.3775C56.4249 32.4227 56.4001 32.4697 56.3706 32.5257C56.3375 32.5885 56.2985 32.6625 56.2489 32.7581H56.9374C56.9481 32.777 56.9584 32.7962 56.9687 32.8155C56.979 32.8348 56.9893 32.854 57 32.8729L56.6508 32.9106L56.748 33.0726C56.7284 33.0589 56.7086 33.0452 56.6882 33.0312C56.6571 33.0097 56.6247 32.9872 56.5899 32.9625C56.5102 33.0501 56.429 33.1401 56.3305 33.2494C56.2537 33.3345 56.1664 33.4312 56.0611 33.5476C56.0117 33.2708 55.987 33.1324 55.9557 32.9531C55.9041 32.9459 55.8426 32.938 55.7758 32.9295C55.7404 32.925 55.7035 32.9203 55.6658 32.9154C55.4088 33.0008 55.2854 33.2013 55.1629 33.4006C55.0734 33.5461 54.9843 33.6909 54.8439 33.7898C54.8736 33.8222 54.9024 33.853 54.9353 33.888C54.9663 33.9211 55.0009 33.958 55.0432 34.0037L54.7121 34.3985C54.639 34.3485 54.5822 34.3089 54.5325 34.2743C54.4916 34.2457 54.4554 34.2205 54.4189 34.1956C54.3415 34.2695 54.2641 34.3434 54.1603 34.4441C54.1956 34.5124 54.2326 34.5849 54.2721 34.6626C54.3009 34.719 54.331 34.7782 54.3629 34.8404C54.2583 34.9729 54.1535 35.106 54.0461 35.2421C53.9 35.4275 53.7493 35.6187 53.5888 35.8218C53.4471 35.7228 53.345 35.6504 53.2445 35.5781C53.405 35.2703 53.3802 34.9649 53.3511 34.6058C53.3462 34.5446 53.3411 34.4819 53.3368 34.4174C53.2729 34.4576 53.2103 34.4893 53.155 34.5174C53.0547 34.5682 52.9782 34.607 52.9612 34.6627C52.9264 34.7809 52.8753 34.8748 52.8096 34.951C52.8002 34.9827 52.7905 35.0151 52.7806 35.0483H52.7063C52.5723 35.1514 52.3987 35.213 52.1936 35.2651C52.3293 35.3153 52.4642 35.3655 52.5981 35.4152C52.6739 35.4435 52.7494 35.4715 52.8245 35.4994C52.7988 35.5829 52.7717 35.6715 52.7426 35.7668C52.7158 35.8546 52.6873 35.948 52.6565 36.0483H52.1212C52.0369 36.1944 51.9544 36.3371 51.8671 36.4881C51.7514 36.6882 51.6271 36.903 51.4788 37.1603C51.435 36.9874 51.4215 36.8117 51.4084 36.6413C51.3847 36.3329 51.3624 36.0423 51.1641 35.8194C51.1511 35.8267 51.138 35.834 51.1251 35.8412C51.0542 35.8807 50.9846 35.9195 50.9229 35.9684C50.8935 35.9916 50.869 36.0328 50.8461 36.0712L50.8455 36.0722ZM55.0665 32.6292C55.1939 32.6105 55.3188 32.5923 55.4451 32.5741C55.4703 32.5139 55.4974 32.4474 55.5257 32.3779C55.5344 32.3565 55.5432 32.3348 55.5522 32.313C55.5946 32.3725 55.6365 32.4316 55.6797 32.4925C55.7507 32.5926 55.8252 32.6976 55.9112 32.8178C55.9231 32.779 55.9356 32.7453 55.9468 32.7151C55.9681 32.6573 55.9848 32.6122 55.9837 32.5678C55.9799 32.4335 55.9767 32.3018 56.0267 32.1937C56.0123 32.1104 55.9996 32.0361 55.9855 31.9531C55.9354 31.9459 55.8756 31.938 55.8108 31.9295C55.7764 31.925 55.7405 31.9203 55.7039 31.9154C55.4542 32.0008 55.3344 32.2013 55.2154 32.4006C55.1683 32.4794 55.1213 32.558 55.0665 32.6292Z" fill="url(#paint5_linear_10996_232)"/>
<mask id="path-7-outside-1_10996_232" maskUnits="userSpaceOnUse" x="67" y="15" width="107" height="25" fill="black">
<rect fill="white" x="67" y="15" width="107" height="25"/>
<path d="M69.704 17.24V31.064C69.704 32.3013 69.9493 33.4213 70.44 34.424C70.952 35.4267 71.656 36.2267 72.552 36.824C73.4693 37.4 74.536 37.688 75.752 37.688C77.032 37.688 78.12 37.4 79.016 36.824C79.912 36.2267 80.5947 35.4267 81.064 34.424C81.5547 33.4213 81.8 32.3013 81.8 31.064V17.24H83.816V31.352C83.816 32.888 83.4853 34.264 82.824 35.48C82.184 36.696 81.256 37.656 80.04 38.36C78.8453 39.0427 77.416 39.384 75.752 39.384C74.1307 39.3627 72.712 39.0107 71.496 38.328C70.3013 37.6453 69.3733 36.696 68.712 35.48C68.0507 34.264 67.72 32.888 67.72 31.352V17.24H69.704ZM91.2352 39H89.2512V23.48H90.8832L91.2032 25.848C91.6512 25.336 92.1952 24.8667 92.8352 24.44C93.4966 24.0133 94.1899 23.6827 94.9152 23.448C95.6406 23.192 96.3233 23.064 96.9633 23.064C98.0726 23.064 98.9792 23.288 99.6833 23.736C100.387 24.184 100.899 24.792 101.219 25.56C101.561 26.328 101.731 27.2133 101.731 28.216V38.968H99.7472V28.6C99.7472 27.5333 99.5232 26.6267 99.0752 25.88C98.6486 25.1333 97.8699 24.76 96.7393 24.76C96.2059 24.76 95.5979 24.8987 94.9152 25.176C94.2539 25.4533 93.5926 25.8267 92.9312 26.296C92.2912 26.7653 91.7259 27.3093 91.2352 27.928V39ZM108.407 39H106.391V23.48H108.407V39ZM107.383 20.088C106.935 20.088 106.573 19.9493 106.295 19.672C106.018 19.3733 105.879 19.0107 105.879 18.584C105.879 18.1573 106.018 17.8053 106.295 17.528C106.573 17.2293 106.935 17.08 107.383 17.08C107.789 17.08 108.141 17.2293 108.439 17.528C108.759 17.8053 108.919 18.1573 108.919 18.584C108.919 19.0107 108.759 19.3733 108.439 19.672C108.141 19.9493 107.789 20.088 107.383 20.088ZM114.851 39H113.539V16.728L115.523 16.408V36.856L114.851 39ZM115.139 26.968L114.499 25.528C114.925 25.0373 115.405 24.6107 115.939 24.248C116.472 23.864 117.048 23.576 117.667 23.384C118.285 23.1707 118.925 23.064 119.587 23.064C121.123 23.064 122.413 23.416 123.459 24.12C124.504 24.8027 125.293 25.7627 125.827 27C126.381 28.216 126.659 29.6347 126.659 31.256C126.659 32.792 126.371 34.1787 125.795 35.416C125.24 36.6533 124.429 37.6347 123.363 38.36C122.296 39.064 120.995 39.416 119.459 39.416C118.755 39.416 118.104 39.288 117.507 39.032C116.909 38.7973 116.355 38.4987 115.843 38.136C115.352 37.752 114.893 37.368 114.467 36.984L115.107 35.704C115.64 36.1947 116.237 36.664 116.899 37.112C117.56 37.5387 118.445 37.752 119.555 37.752C120.707 37.752 121.656 37.464 122.403 36.888C123.149 36.312 123.704 35.5333 124.067 34.552C124.451 33.5707 124.643 32.4827 124.643 31.288C124.643 30.008 124.461 28.8773 124.099 27.896C123.757 26.9147 123.213 26.1467 122.467 25.592C121.741 25.016 120.792 24.728 119.619 24.728C118.595 24.728 117.731 24.9413 117.027 25.368C116.323 25.7947 115.693 26.328 115.139 26.968ZM132.02 34.648C132.02 35.1173 132.126 35.5973 132.34 36.088C132.553 36.5787 132.894 36.984 133.364 37.304C133.833 37.624 134.452 37.784 135.22 37.784C136.222 37.784 137.118 37.528 137.908 37.016C138.718 36.504 139.39 35.9173 139.924 35.256V31.32H135.54C134.388 31.32 133.513 31.6507 132.916 32.312C132.318 32.9733 132.02 33.752 132.02 34.648ZM131.764 25.816L131.156 24.408C131.561 24.1307 132.062 23.896 132.66 23.704C133.278 23.512 133.897 23.3627 134.516 23.256C135.156 23.128 135.689 23.064 136.116 23.064C137.31 23.064 138.334 23.2773 139.188 23.704C140.062 24.1093 140.734 24.696 141.204 25.464C141.673 26.2107 141.908 27.096 141.908 28.12V39H140.276L140.02 37.336C139.529 37.848 138.846 38.328 137.972 38.776C137.097 39.2027 136.201 39.416 135.284 39.416C133.534 39.416 132.222 38.9573 131.348 38.04C130.494 37.1227 130.068 35.992 130.068 34.648C130.068 33.176 130.58 32.0347 131.604 31.224C132.649 30.392 133.982 29.9867 135.604 30.008H139.924V28.44C139.924 27.3733 139.614 26.488 138.996 25.784C138.398 25.08 137.47 24.728 136.212 24.728C135.081 24.728 134.196 24.8453 133.556 25.08C132.916 25.3147 132.318 25.56 131.764 25.816ZM145.824 38.2L146.464 36.728C146.848 36.92 147.264 37.1013 147.712 37.272C148.16 37.4213 148.64 37.5493 149.152 37.656C149.664 37.7627 150.187 37.816 150.72 37.816C151.574 37.816 152.31 37.72 152.928 37.528C153.568 37.336 154.059 37.048 154.4 36.664C154.763 36.2587 154.944 35.768 154.944 35.192C154.944 34.68 154.742 34.2213 154.336 33.816C153.952 33.4107 153.44 33.048 152.8 32.728C152.16 32.408 151.467 32.12 150.72 31.864C149.91 31.5867 149.12 31.256 148.352 30.872C147.584 30.488 146.944 30.008 146.432 29.432C145.942 28.856 145.696 28.1627 145.696 27.352C145.696 26.008 146.208 24.9627 147.232 24.216C148.256 23.448 149.643 23.064 151.392 23.064C151.84 23.064 152.352 23.1173 152.928 23.224C153.526 23.3307 154.112 23.48 154.688 23.672C155.264 23.864 155.723 24.088 156.064 24.344L155.424 25.752C154.998 25.5387 154.443 25.304 153.76 25.048C153.099 24.792 152.288 24.664 151.328 24.664C150.24 24.664 149.344 24.9093 148.64 25.4C147.936 25.8693 147.584 26.4773 147.584 27.224C147.606 27.9493 148.011 28.5467 148.8 29.016C149.59 29.464 150.528 29.8693 151.616 30.232C152.47 30.5307 153.291 30.904 154.08 31.352C154.87 31.7787 155.52 32.2907 156.032 32.888C156.544 33.4853 156.8 34.2 156.8 35.032C156.8 36.3973 156.267 37.4747 155.2 38.264C154.155 39.032 152.64 39.416 150.656 39.416C150.23 39.416 149.707 39.3627 149.088 39.256C148.491 39.1707 147.894 39.0427 147.296 38.872C146.72 38.68 146.23 38.456 145.824 38.2ZM173.215 31.352H161.695C161.716 32.5893 161.908 33.6987 162.271 34.68C162.655 35.64 163.263 36.408 164.095 36.984C164.948 37.5387 166.068 37.816 167.455 37.816C168.351 37.816 169.183 37.6987 169.951 37.464C170.74 37.208 171.529 36.8773 172.319 36.472L172.991 37.944C172.5 38.2 171.988 38.4453 171.455 38.68C170.921 38.8933 170.335 39.064 169.695 39.192C169.076 39.3413 168.361 39.416 167.551 39.416C165.759 39.416 164.276 39.064 163.103 38.36C161.951 37.656 161.087 36.6853 160.511 35.448C159.956 34.1893 159.679 32.76 159.679 31.16C159.7 29.6027 159.977 28.216 160.511 27C161.044 25.784 161.833 24.824 162.879 24.12C163.924 23.416 165.204 23.064 166.719 23.064C168.233 23.064 169.46 23.416 170.399 24.12C171.359 24.824 172.063 25.7947 172.511 27.032C172.98 28.248 173.215 29.6347 173.215 31.192V31.352ZM161.759 29.976H171.199C171.113 28.952 170.9 28.0453 170.559 27.256C170.239 26.4667 169.759 25.848 169.119 25.4C168.479 24.952 167.647 24.728 166.623 24.728C165.599 24.728 164.745 24.952 164.063 25.4C163.38 25.848 162.847 26.4667 162.463 27.256C162.1 28.0453 161.865 28.952 161.759 29.976Z"/>
</mask>
<path d="M69.704 17.24V31.064C69.704 32.3013 69.9493 33.4213 70.44 34.424C70.952 35.4267 71.656 36.2267 72.552 36.824C73.4693 37.4 74.536 37.688 75.752 37.688C77.032 37.688 78.12 37.4 79.016 36.824C79.912 36.2267 80.5947 35.4267 81.064 34.424C81.5547 33.4213 81.8 32.3013 81.8 31.064V17.24H83.816V31.352C83.816 32.888 83.4853 34.264 82.824 35.48C82.184 36.696 81.256 37.656 80.04 38.36C78.8453 39.0427 77.416 39.384 75.752 39.384C74.1307 39.3627 72.712 39.0107 71.496 38.328C70.3013 37.6453 69.3733 36.696 68.712 35.48C68.0507 34.264 67.72 32.888 67.72 31.352V17.24H69.704ZM91.2352 39H89.2512V23.48H90.8832L91.2032 25.848C91.6512 25.336 92.1952 24.8667 92.8352 24.44C93.4966 24.0133 94.1899 23.6827 94.9152 23.448C95.6406 23.192 96.3233 23.064 96.9633 23.064C98.0726 23.064 98.9792 23.288 99.6833 23.736C100.387 24.184 100.899 24.792 101.219 25.56C101.561 26.328 101.731 27.2133 101.731 28.216V38.968H99.7472V28.6C99.7472 27.5333 99.5232 26.6267 99.0752 25.88C98.6486 25.1333 97.8699 24.76 96.7393 24.76C96.2059 24.76 95.5979 24.8987 94.9152 25.176C94.2539 25.4533 93.5926 25.8267 92.9312 26.296C92.2912 26.7653 91.7259 27.3093 91.2352 27.928V39ZM108.407 39H106.391V23.48H108.407V39ZM107.383 20.088C106.935 20.088 106.573 19.9493 106.295 19.672C106.018 19.3733 105.879 19.0107 105.879 18.584C105.879 18.1573 106.018 17.8053 106.295 17.528C106.573 17.2293 106.935 17.08 107.383 17.08C107.789 17.08 108.141 17.2293 108.439 17.528C108.759 17.8053 108.919 18.1573 108.919 18.584C108.919 19.0107 108.759 19.3733 108.439 19.672C108.141 19.9493 107.789 20.088 107.383 20.088ZM114.851 39H113.539V16.728L115.523 16.408V36.856L114.851 39ZM115.139 26.968L114.499 25.528C114.925 25.0373 115.405 24.6107 115.939 24.248C116.472 23.864 117.048 23.576 117.667 23.384C118.285 23.1707 118.925 23.064 119.587 23.064C121.123 23.064 122.413 23.416 123.459 24.12C124.504 24.8027 125.293 25.7627 125.827 27C126.381 28.216 126.659 29.6347 126.659 31.256C126.659 32.792 126.371 34.1787 125.795 35.416C125.24 36.6533 124.429 37.6347 123.363 38.36C122.296 39.064 120.995 39.416 119.459 39.416C118.755 39.416 118.104 39.288 117.507 39.032C116.909 38.7973 116.355 38.4987 115.843 38.136C115.352 37.752 114.893 37.368 114.467 36.984L115.107 35.704C115.64 36.1947 116.237 36.664 116.899 37.112C117.56 37.5387 118.445 37.752 119.555 37.752C120.707 37.752 121.656 37.464 122.403 36.888C123.149 36.312 123.704 35.5333 124.067 34.552C124.451 33.5707 124.643 32.4827 124.643 31.288C124.643 30.008 124.461 28.8773 124.099 27.896C123.757 26.9147 123.213 26.1467 122.467 25.592C121.741 25.016 120.792 24.728 119.619 24.728C118.595 24.728 117.731 24.9413 117.027 25.368C116.323 25.7947 115.693 26.328 115.139 26.968ZM132.02 34.648C132.02 35.1173 132.126 35.5973 132.34 36.088C132.553 36.5787 132.894 36.984 133.364 37.304C133.833 37.624 134.452 37.784 135.22 37.784C136.222 37.784 137.118 37.528 137.908 37.016C138.718 36.504 139.39 35.9173 139.924 35.256V31.32H135.54C134.388 31.32 133.513 31.6507 132.916 32.312C132.318 32.9733 132.02 33.752 132.02 34.648ZM131.764 25.816L131.156 24.408C131.561 24.1307 132.062 23.896 132.66 23.704C133.278 23.512 133.897 23.3627 134.516 23.256C135.156 23.128 135.689 23.064 136.116 23.064C137.31 23.064 138.334 23.2773 139.188 23.704C140.062 24.1093 140.734 24.696 141.204 25.464C141.673 26.2107 141.908 27.096 141.908 28.12V39H140.276L140.02 37.336C139.529 37.848 138.846 38.328 137.972 38.776C137.097 39.2027 136.201 39.416 135.284 39.416C133.534 39.416 132.222 38.9573 131.348 38.04C130.494 37.1227 130.068 35.992 130.068 34.648C130.068 33.176 130.58 32.0347 131.604 31.224C132.649 30.392 133.982 29.9867 135.604 30.008H139.924V28.44C139.924 27.3733 139.614 26.488 138.996 25.784C138.398 25.08 137.47 24.728 136.212 24.728C135.081 24.728 134.196 24.8453 133.556 25.08C132.916 25.3147 132.318 25.56 131.764 25.816ZM145.824 38.2L146.464 36.728C146.848 36.92 147.264 37.1013 147.712 37.272C148.16 37.4213 148.64 37.5493 149.152 37.656C149.664 37.7627 150.187 37.816 150.72 37.816C151.574 37.816 152.31 37.72 152.928 37.528C153.568 37.336 154.059 37.048 154.4 36.664C154.763 36.2587 154.944 35.768 154.944 35.192C154.944 34.68 154.742 34.2213 154.336 33.816C153.952 33.4107 153.44 33.048 152.8 32.728C152.16 32.408 151.467 32.12 150.72 31.864C149.91 31.5867 149.12 31.256 148.352 30.872C147.584 30.488 146.944 30.008 146.432 29.432C145.942 28.856 145.696 28.1627 145.696 27.352C145.696 26.008 146.208 24.9627 147.232 24.216C148.256 23.448 149.643 23.064 151.392 23.064C151.84 23.064 152.352 23.1173 152.928 23.224C153.526 23.3307 154.112 23.48 154.688 23.672C155.264 23.864 155.723 24.088 156.064 24.344L155.424 25.752C154.998 25.5387 154.443 25.304 153.76 25.048C153.099 24.792 152.288 24.664 151.328 24.664C150.24 24.664 149.344 24.9093 148.64 25.4C147.936 25.8693 147.584 26.4773 147.584 27.224C147.606 27.9493 148.011 28.5467 148.8 29.016C149.59 29.464 150.528 29.8693 151.616 30.232C152.47 30.5307 153.291 30.904 154.08 31.352C154.87 31.7787 155.52 32.2907 156.032 32.888C156.544 33.4853 156.8 34.2 156.8 35.032C156.8 36.3973 156.267 37.4747 155.2 38.264C154.155 39.032 152.64 39.416 150.656 39.416C150.23 39.416 149.707 39.3627 149.088 39.256C148.491 39.1707 147.894 39.0427 147.296 38.872C146.72 38.68 146.23 38.456 145.824 38.2ZM173.215 31.352H161.695C161.716 32.5893 161.908 33.6987 162.271 34.68C162.655 35.64 163.263 36.408 164.095 36.984C164.948 37.5387 166.068 37.816 167.455 37.816C168.351 37.816 169.183 37.6987 169.951 37.464C170.74 37.208 171.529 36.8773 172.319 36.472L172.991 37.944C172.5 38.2 171.988 38.4453 171.455 38.68C170.921 38.8933 170.335 39.064 169.695 39.192C169.076 39.3413 168.361 39.416 167.551 39.416C165.759 39.416 164.276 39.064 163.103 38.36C161.951 37.656 161.087 36.6853 160.511 35.448C159.956 34.1893 159.679 32.76 159.679 31.16C159.7 29.6027 159.977 28.216 160.511 27C161.044 25.784 161.833 24.824 162.879 24.12C163.924 23.416 165.204 23.064 166.719 23.064C168.233 23.064 169.46 23.416 170.399 24.12C171.359 24.824 172.063 25.7947 172.511 27.032C172.98 28.248 173.215 29.6347 173.215 31.192V31.352ZM161.759 29.976H171.199C171.113 28.952 170.9 28.0453 170.559 27.256C170.239 26.4667 169.759 25.848 169.119 25.4C168.479 24.952 167.647 24.728 166.623 24.728C165.599 24.728 164.745 24.952 164.063 25.4C163.38 25.848 162.847 26.4667 162.463 27.256C162.1 28.0453 161.865 28.952 161.759 29.976Z" fill="#2E2F2F"/>
<path d="M69.704 17.24H70.1751V16.7689H69.704V17.24ZM70.44 34.424L70.0168 34.6311L70.0204 34.6382L70.44 34.424ZM72.552 36.824L72.2906 37.2161L72.3015 37.223L72.552 36.824ZM79.016 36.824L79.2708 37.2203L79.2773 37.216L79.016 36.824ZM81.064 34.424L80.6408 34.2169L80.6373 34.2243L81.064 34.424ZM81.8 17.24V16.7689H81.3289V17.24H81.8ZM83.816 17.24H84.2871V16.7689H83.816V17.24ZM82.824 35.48L82.4101 35.2549L82.4071 35.2606L82.824 35.48ZM80.04 38.36L80.2737 38.769L80.276 38.7677L80.04 38.36ZM75.752 39.384L75.7458 39.8551H75.752V39.384ZM71.496 38.328L71.2623 38.737L71.2654 38.7388L71.496 38.328ZM68.712 35.48L69.1259 35.2549L69.1259 35.2549L68.712 35.48ZM67.72 17.24V16.7689H67.2489V17.24H67.72ZM69.2329 17.24V31.064H70.1751V17.24H69.2329ZM69.2329 31.064C69.2329 32.3652 69.4913 33.5572 70.0168 34.6311L70.8632 34.2169C70.4073 33.2854 70.1751 32.2374 70.1751 31.064H69.2329ZM70.0204 34.6382C70.5674 35.7093 71.3245 36.5719 72.2907 37.216L72.8133 36.432C71.9875 35.8815 71.3366 35.144 70.8596 34.2098L70.0204 34.6382ZM72.3015 37.223C73.3028 37.8517 74.4586 38.1591 75.752 38.1591V37.2169C74.6134 37.2169 73.6359 36.9483 72.8025 36.425L72.3015 37.223ZM75.752 38.1591C77.1039 38.1591 78.2846 37.8542 79.2708 37.2203L78.7612 36.4277C77.9554 36.9458 76.9601 37.2169 75.752 37.2169V38.1591ZM79.2773 37.216C80.2471 36.5695 80.9859 35.7021 81.4907 34.6237L80.6373 34.2243C80.2034 35.1512 79.5769 35.8838 78.7547 36.432L79.2773 37.216ZM81.4872 34.6311C82.0127 33.5572 82.2711 32.3652 82.2711 31.064H81.3289C81.3289 32.2374 81.0967 33.2854 80.6408 34.2169L81.4872 34.6311ZM82.2711 31.064V17.24H81.3289V31.064H82.2711ZM81.8 17.7111H83.816V16.7689H81.8V17.7111ZM83.3449 17.24V31.352H84.2871V17.24H83.3449ZM83.3449 31.352C83.3449 32.8182 83.0299 34.1153 82.4101 35.2549L83.2379 35.7051C83.9407 34.4127 84.2871 32.9578 84.2871 31.352H83.3449ZM82.4071 35.2606C81.8094 36.3962 80.945 37.2917 79.804 37.9523L80.276 38.7677C81.567 38.0203 82.5586 36.9958 83.2409 35.6994L82.4071 35.2606ZM79.8063 37.951C78.6963 38.5852 77.3511 38.9129 75.752 38.9129V39.8551C77.4809 39.8551 78.9944 39.5001 80.2737 38.769L79.8063 37.951ZM75.7582 38.9129C74.2027 38.8925 72.8636 38.5555 71.7266 37.9172L71.2654 38.7388C72.5604 39.4658 74.0587 39.8329 75.7458 39.8551L75.7582 38.9129ZM71.7297 37.919C70.6115 37.28 69.7457 36.3946 69.1259 35.2549L68.2981 35.7051C69.001 36.9974 69.9912 38.0107 71.2623 38.737L71.7297 37.919ZM69.1259 35.2549C68.5061 34.1153 68.1911 32.8182 68.1911 31.352H67.2489C67.2489 32.9578 67.5953 34.4127 68.2981 35.7051L69.1259 35.2549ZM68.1911 31.352V17.24H67.2489V31.352H68.1911ZM67.72 17.7111H69.704V16.7689H67.72V17.7111ZM91.2352 39V39.4711H91.7064V39H91.2352ZM89.2512 39H88.7801V39.4711H89.2512V39ZM89.2512 23.48V23.0089H88.7801V23.48H89.2512ZM90.8832 23.48L91.3501 23.4169L91.295 23.0089H90.8832V23.48ZM91.2032 25.848L90.7364 25.9111L90.8752 26.9383L91.5578 26.1582L91.2032 25.848ZM92.8352 24.44L92.5798 24.0441L92.5739 24.048L92.8352 24.44ZM94.9152 23.448L95.0603 23.8964L95.072 23.8922L94.9152 23.448ZM99.6833 23.736L99.9362 23.3385L99.9362 23.3385L99.6833 23.736ZM101.219 25.56L100.784 25.7412L100.789 25.7513L101.219 25.56ZM101.731 38.968V39.4391H102.202V38.968H101.731ZM99.7472 38.968H99.2761V39.4391H99.7472V38.968ZM99.0752 25.88L98.6661 26.1138L98.6713 26.1224L99.0752 25.88ZM94.9152 25.176L94.7379 24.7395L94.7331 24.7415L94.9152 25.176ZM92.9312 26.296L92.6586 25.9118L92.6527 25.9161L92.9312 26.296ZM91.2352 27.928L90.8661 27.6353L90.7641 27.7639V27.928H91.2352ZM91.2352 38.5289H89.2512V39.4711H91.2352V38.5289ZM89.7224 39V23.48H88.7801V39H89.7224ZM89.2512 23.9511H90.8832V23.0089H89.2512V23.9511ZM90.4164 23.5431L90.7364 25.9111L91.6701 25.7849L91.3501 23.4169L90.4164 23.5431ZM91.5578 26.1582C91.9752 25.6812 92.4867 25.2386 93.0966 24.832L92.5739 24.048C91.9038 24.4948 91.3273 24.9908 90.8487 25.5378L91.5578 26.1582ZM93.0906 24.8359C93.7187 24.4307 94.3751 24.1179 95.0603 23.8962L94.7702 22.9998C94.0047 23.2474 93.2744 23.596 92.5798 24.0441L93.0906 24.8359ZM95.072 23.8922C95.7569 23.6505 96.3862 23.5351 96.9633 23.5351V22.5929C96.2603 22.5929 95.5243 22.7335 94.7585 23.0037L95.072 23.8922ZM96.9633 23.5351C98.0118 23.5351 98.823 23.747 99.4303 24.1335L99.9362 23.3385C99.1355 22.829 98.1334 22.5929 96.9633 22.5929V23.5351ZM99.4303 24.1335C100.053 24.5298 100.502 25.0625 100.784 25.7412L101.654 25.3788C101.297 24.5215 100.721 23.8381 99.9362 23.3385L99.4303 24.1335ZM100.789 25.7513C101.099 26.4486 101.26 27.2667 101.26 28.216H102.202C102.202 27.1599 102.023 26.2074 101.65 25.3687L100.789 25.7513ZM101.26 28.216V38.968H102.202V28.216H101.26ZM101.731 38.4969H99.7472V39.4391H101.731V38.4969ZM100.218 38.968V28.6H99.2761V38.968H100.218ZM100.218 28.6C100.218 27.4671 99.9801 26.4724 99.4792 25.6376L98.6713 26.1224C99.0664 26.781 99.2761 27.5995 99.2761 28.6H100.218ZM99.4843 25.6463C98.9473 24.7066 97.978 24.2889 96.7393 24.2889V25.2311C97.7619 25.2311 98.3498 25.5601 98.6662 26.1137L99.4843 25.6463ZM96.7393 24.2889C96.1267 24.2889 95.4569 24.4475 94.7379 24.7395L95.0926 25.6125C95.739 25.3499 96.2851 25.2311 96.7393 25.2311V24.2889ZM94.7331 24.7415C94.036 25.0339 93.3445 25.425 92.6586 25.9118L93.2039 26.6802C93.8406 26.2283 94.4718 25.8728 95.0974 25.6105L94.7331 24.7415ZM92.6527 25.9161C91.9789 26.4102 91.3831 26.9835 90.8661 27.6353L91.6044 28.2207C92.0687 27.6352 92.6036 27.1205 93.2098 26.6759L92.6527 25.9161ZM90.7641 27.928V39H91.7064V27.928H90.7641ZM108.407 39V39.4711H108.878V39H108.407ZM106.391 39H105.92V39.4711H106.391V39ZM106.391 23.48V23.0089H105.92V23.48H106.391ZM108.407 23.48H108.878V23.0089H108.407V23.48ZM106.295 19.672L105.95 19.9926L105.956 19.999L105.962 20.0051L106.295 19.672ZM106.295 17.528L106.628 17.8611L106.635 17.855L106.64 17.8486L106.295 17.528ZM108.439 17.528L108.106 17.8611L108.118 17.873L108.131 17.884L108.439 17.528ZM108.439 19.672L108.76 20.0172L108.761 20.0164L108.439 19.672ZM108.407 38.5289H106.391V39.4711H108.407V38.5289ZM106.862 39V23.48H105.92V39H106.862ZM106.391 23.9511H108.407V23.0089H106.391V23.9511ZM107.936 23.48V39H108.878V23.48H107.936ZM107.383 19.6169C107.041 19.6169 106.805 19.5151 106.628 19.3389L105.962 20.0051C106.341 20.3836 106.83 20.5591 107.383 20.5591V19.6169ZM106.64 19.3514C106.448 19.1443 106.35 18.8979 106.35 18.584H105.408C105.408 19.1234 105.588 19.6024 105.95 19.9926L106.64 19.3514ZM106.35 18.584C106.35 18.2702 106.448 18.0419 106.628 17.8611L105.962 17.1949C105.588 17.5688 105.408 18.0445 105.408 18.584H106.35ZM106.64 17.8486C106.819 17.656 107.052 17.5511 107.383 17.5511V16.6089C106.819 16.6089 106.326 16.8027 105.95 17.2074L106.64 17.8486ZM107.383 17.5511C107.658 17.5511 107.892 17.6467 108.106 17.8611L108.772 17.1949C108.389 16.812 107.919 16.6089 107.383 16.6089V17.5511ZM108.131 17.884C108.347 18.0711 108.448 18.2928 108.448 18.584H109.39C109.39 18.0219 109.172 17.5396 108.748 17.172L108.131 17.884ZM108.448 18.584C108.448 18.8763 108.345 19.1154 108.118 19.3276L108.761 20.0164C109.173 19.6313 109.39 19.145 109.39 18.584H108.448ZM108.119 19.3268C107.907 19.5237 107.669 19.6169 107.383 19.6169V20.5591C107.908 20.5591 108.375 20.375 108.76 20.0172L108.119 19.3268ZM114.851 39V39.4711H115.197L115.3 39.1409L114.851 39ZM113.539 39H113.068V39.4711H113.539V39ZM113.539 16.728L113.464 16.2629L113.068 16.3268V16.728H113.539ZM115.523 16.408H115.994V15.8548L115.448 15.9429L115.523 16.408ZM115.523 36.856L115.972 36.9969L115.994 36.9281V36.856H115.523ZM115.139 26.968L114.708 27.1593L115.009 27.8367L115.495 27.2765L115.139 26.968ZM114.499 25.528L114.143 25.2189L113.946 25.4452L114.068 25.7193L114.499 25.528ZM115.939 24.248L116.204 24.6377L116.214 24.6303L115.939 24.248ZM117.667 23.384L117.806 23.8339L117.813 23.8318L117.82 23.8294L117.667 23.384ZM123.459 24.12L123.196 24.5108L123.201 24.5144L123.459 24.12ZM125.827 27L125.394 27.1865L125.398 27.1955L125.827 27ZM125.795 35.416L125.368 35.2172L125.365 35.2233L125.795 35.416ZM123.363 38.36L123.622 38.7532L123.628 38.7496L123.363 38.36ZM117.507 39.032L117.692 38.599L117.686 38.5961L117.679 38.5935L117.507 39.032ZM115.843 38.136L115.552 38.507L115.561 38.5139L115.57 38.5204L115.843 38.136ZM114.467 36.984L114.045 36.7733L113.885 37.0942L114.152 37.3342L114.467 36.984ZM115.107 35.704L115.426 35.3573L114.965 34.9336L114.685 35.4933L115.107 35.704ZM116.899 37.112L116.634 37.5021L116.643 37.5079L116.899 37.112ZM122.403 36.888L122.691 37.261L122.691 37.261L122.403 36.888ZM124.067 34.552L123.628 34.3803L123.625 34.3887L124.067 34.552ZM124.099 27.896L123.654 28.0508L123.657 28.0593L124.099 27.896ZM122.467 25.592L122.174 25.9609L122.18 25.9656L122.186 25.9702L122.467 25.592ZM117.027 25.368L116.783 24.9651L116.783 24.9651L117.027 25.368ZM114.851 38.5289H113.539V39.4711H114.851V38.5289ZM114.01 39V16.728H113.068V39H114.01ZM113.614 17.1931L115.598 16.8731L115.448 15.9429L113.464 16.2629L113.614 17.1931ZM115.052 16.408V36.856H115.994V16.408H115.052ZM115.073 36.7151L114.401 38.8591L115.3 39.1409L115.972 36.9969L115.073 36.7151ZM115.569 26.7767L114.929 25.3367L114.068 25.7193L114.708 27.1593L115.569 26.7767ZM114.854 25.8371C115.255 25.3768 115.704 24.9772 116.204 24.6376L115.674 23.8584C115.107 24.2441 114.596 24.6979 114.143 25.2189L114.854 25.8371ZM116.214 24.6303C116.707 24.2756 117.237 24.0106 117.806 23.8339L117.527 22.9341C116.859 23.1414 116.237 23.4524 115.663 23.8657L116.214 24.6303ZM117.82 23.8294C118.389 23.6333 118.977 23.5351 119.587 23.5351V22.5929C118.874 22.5929 118.182 22.7081 117.513 22.9386L117.82 23.8294ZM119.587 23.5351C121.05 23.5351 122.244 23.8696 123.196 24.5108L123.722 23.7292C122.583 22.9624 121.196 22.5929 119.587 22.5929V23.5351ZM123.201 24.5144C124.163 25.1425 124.894 26.0271 125.394 27.1865L126.259 26.8135C125.692 25.4982 124.845 24.4629 123.716 23.7256L123.201 24.5144ZM125.398 27.1955C125.919 28.3385 126.188 29.688 126.188 31.256H127.13C127.13 29.5813 126.843 28.0935 126.255 26.8045L125.398 27.1955ZM126.188 31.256C126.188 32.732 125.911 34.0495 125.368 35.2172L126.222 35.6148C126.83 34.3078 127.13 32.852 127.13 31.256H126.188ZM125.365 35.2233C124.844 36.3853 124.089 37.2967 123.098 37.9704L123.628 38.7496C124.77 37.9726 125.636 36.9214 126.225 35.6087L125.365 35.2233ZM123.103 37.9668C122.128 38.6105 120.921 38.9449 119.459 38.9449V39.8871C121.068 39.8871 122.464 39.5175 123.622 38.7532L123.103 37.9668ZM119.459 38.9449C118.813 38.9449 118.226 38.8278 117.692 38.599L117.321 39.465C117.982 39.7482 118.696 39.8871 119.459 39.8871V38.9449ZM117.679 38.5935C117.116 38.3724 116.595 38.0917 116.115 37.7516L115.57 38.5204C116.114 38.9056 116.703 39.2222 117.334 39.4705L117.679 38.5935ZM116.133 37.765C115.65 37.3871 115.2 37.01 114.782 36.6338L114.152 37.3342C114.587 37.726 115.054 38.1169 115.552 38.507L116.133 37.765ZM114.888 37.1947L115.528 35.9147L114.685 35.4933L114.045 36.7733L114.888 37.1947ZM114.788 36.0507C115.34 36.5587 115.956 37.0423 116.635 37.502L117.163 36.722C116.519 36.2857 115.94 35.8307 115.426 35.3573L114.788 36.0507ZM116.643 37.5079C117.406 37.9999 118.39 38.2231 119.555 38.2231V37.2809C118.5 37.2809 117.714 37.0774 117.154 36.7161L116.643 37.5079ZM119.555 38.2231C120.787 38.2231 121.844 37.9137 122.691 37.261L122.115 36.515C121.468 37.0143 120.626 37.2809 119.555 37.2809V38.2231ZM122.691 37.261C123.515 36.6252 124.119 35.7703 124.509 34.7153L123.625 34.3887C123.289 35.2964 122.784 35.9988 122.115 36.515L122.691 37.261ZM124.505 34.7237C124.914 33.6808 125.114 32.5336 125.114 31.288H124.172C124.172 32.4317 123.988 33.4605 123.628 34.3803L124.505 34.7237ZM125.114 31.288C125.114 29.9643 124.926 28.7765 124.541 27.7327L123.657 28.0593C123.996 28.9781 124.172 30.0517 124.172 31.288H125.114ZM124.544 27.7412C124.175 26.6815 123.579 25.8313 122.748 25.2138L122.186 25.9702C122.848 26.462 123.34 27.1478 123.654 28.0508L124.544 27.7412ZM122.76 25.2231C121.931 24.5649 120.87 24.2569 119.619 24.2569V25.1991C120.715 25.1991 121.552 25.4671 122.174 25.9609L122.76 25.2231ZM119.619 24.2569C118.53 24.2569 117.576 24.4841 116.783 24.9651L117.271 25.7709C117.885 25.3985 118.66 25.1991 119.619 25.1991V24.2569ZM116.783 24.9651C116.035 25.4179 115.369 25.9835 114.783 26.6595L115.495 27.2765C116.018 26.6725 116.61 26.1714 117.271 25.7709L116.783 24.9651ZM132.34 36.088L131.908 36.2758L132.34 36.088ZM133.364 37.304L133.098 37.6932L133.364 37.304ZM137.908 37.016L137.656 36.6177L137.651 36.6208L137.908 37.016ZM139.924 35.256L140.29 35.5517L140.395 35.4223V35.256H139.924ZM139.924 31.32H140.395V30.8489H139.924V31.32ZM132.916 32.312L132.566 31.9962L132.566 31.9962L132.916 32.312ZM131.764 25.816L131.331 26.0028L131.523 26.4461L131.961 26.2437L131.764 25.816ZM131.156 24.408L130.89 24.0192L130.569 24.2384L130.723 24.5948L131.156 24.408ZM132.66 23.704L132.52 23.254L132.516 23.2555L132.66 23.704ZM134.516 23.256L134.596 23.7204L134.608 23.718L134.516 23.256ZM139.188 23.704L138.977 24.1256L138.99 24.1314L139.188 23.704ZM141.204 25.464L140.802 25.7097L140.805 25.7147L141.204 25.464ZM141.908 39V39.4711H142.379V39H141.908ZM140.276 39L139.81 39.0716L139.872 39.4711H140.276V39ZM140.02 37.336L140.485 37.2644L140.34 36.3207L139.68 37.01L140.02 37.336ZM137.972 38.776L138.178 39.1995L138.187 39.1953L137.972 38.776ZM131.348 38.04L131.003 38.3609L131.007 38.3651L131.348 38.04ZM131.604 31.224L131.896 31.5934L131.897 31.5926L131.604 31.224ZM135.604 30.008L135.598 30.4791H135.604V30.008ZM139.924 30.008V30.4791H140.395V30.008H139.924ZM138.996 25.784L138.636 26.0888L138.642 26.095L138.996 25.784ZM133.556 25.08L133.394 24.6377L133.394 24.6377L133.556 25.08ZM131.549 34.648C131.549 35.1904 131.672 35.7342 131.908 36.2758L132.772 35.9002C132.581 35.4605 132.491 35.0443 132.491 34.648H131.549ZM131.908 36.2758C132.159 36.8531 132.56 37.3264 133.098 37.6932L133.629 36.9148C133.229 36.6416 132.947 36.3042 132.772 35.9002L131.908 36.2758ZM133.098 37.6932C133.669 38.0824 134.39 38.2551 135.22 38.2551V37.3129C134.514 37.3129 133.997 37.1656 133.629 36.9148L133.098 37.6932ZM135.22 38.2551C136.307 38.2551 137.293 37.9761 138.164 37.4112L137.651 36.6208C136.943 37.0799 136.138 37.3129 135.22 37.3129V38.2551ZM138.159 37.4143C139.008 36.8782 139.721 36.2582 140.29 35.5517L139.557 34.9603C139.06 35.5765 138.429 36.1298 137.656 36.6177L138.159 37.4143ZM140.395 35.256V31.32H139.453V35.256H140.395ZM139.924 30.8489H135.54V31.7911H139.924V30.8489ZM135.54 30.8489C134.296 30.8489 133.277 31.209 132.566 31.9962L133.265 32.6278C133.749 32.0924 134.48 31.7911 135.54 31.7911V30.8489ZM132.566 31.9962C131.89 32.7447 131.549 33.636 131.549 34.648H132.491C132.491 33.868 132.747 33.202 133.265 32.6278L132.566 31.9962ZM132.196 25.6292L131.588 24.2212L130.723 24.5948L131.331 26.0028L132.196 25.6292ZM131.422 24.7968C131.781 24.5511 132.239 24.3342 132.804 24.1525L132.516 23.2555C131.886 23.4578 131.341 23.7102 130.89 24.0192L131.422 24.7968ZM132.799 24.1539C133.399 23.9678 133.998 23.8233 134.596 23.7203L134.436 22.7917C133.796 22.902 133.158 23.0562 132.52 23.2541L132.799 24.1539ZM134.608 23.718C135.232 23.5932 135.732 23.5351 136.116 23.5351V22.5929C135.646 22.5929 135.08 22.6628 134.423 22.794L134.608 23.718ZM136.116 23.5351C137.255 23.5351 138.204 23.7386 138.977 24.1254L139.398 23.2826C138.465 22.8161 137.366 22.5929 136.116 22.5929V23.5351ZM138.99 24.1314C139.786 24.5006 140.384 25.0268 140.802 25.7097L141.606 25.2183C141.084 24.3652 140.339 23.7181 139.386 23.2766L138.99 24.1314ZM140.805 25.7147C141.22 26.3748 141.437 27.1701 141.437 28.12H142.379C142.379 27.0219 142.126 26.0465 141.603 25.2133L140.805 25.7147ZM141.437 28.12V39H142.379V28.12H141.437ZM141.908 38.5289H140.276V39.4711H141.908V38.5289ZM140.741 38.9284L140.485 37.2644L139.554 37.4076L139.81 39.0716L140.741 38.9284ZM139.68 37.01C139.236 37.4727 138.602 37.9241 137.757 38.3567L138.187 39.1953C139.091 38.7319 139.822 38.2233 140.36 37.662L139.68 37.01ZM137.765 38.3526C136.951 38.7498 136.125 38.9449 135.284 38.9449V39.8871C136.277 39.8871 137.243 39.6555 138.178 39.1994L137.765 38.3526ZM135.284 38.9449C133.613 38.9449 132.445 38.5079 131.689 37.7149L131.007 38.3651C132 39.4067 133.456 39.8871 135.284 39.8871V38.9449ZM131.693 37.7191C130.927 36.8957 130.539 35.8824 130.539 34.648H129.597C129.597 36.1016 130.062 37.3497 131.003 38.3609L131.693 37.7191ZM130.539 34.648C130.539 33.2992 131 32.3025 131.896 31.5934L131.311 30.8546C130.159 31.7668 129.597 33.0528 129.597 34.648H130.539ZM131.897 31.5926C132.84 30.8419 134.061 30.4588 135.598 30.4791L135.61 29.5369C133.904 29.5145 132.458 29.9421 131.31 30.8554L131.897 31.5926ZM135.604 30.4791H139.924V29.5369H135.604V30.4791ZM140.395 30.008V28.44H139.453V30.008H140.395ZM140.395 28.44C140.395 27.2757 140.054 26.2749 139.35 25.473L138.642 26.095C139.175 26.7011 139.453 27.4709 139.453 28.44H140.395ZM139.355 25.4792C138.639 24.6351 137.556 24.2569 136.212 24.2569V25.1991C137.385 25.1991 138.158 25.5249 138.637 26.0888L139.355 25.4792ZM136.212 24.2569C135.057 24.2569 134.109 24.3755 133.394 24.6377L133.718 25.5223C134.283 25.3151 135.105 25.1991 136.212 25.1991V24.2569ZM133.394 24.6377C132.743 24.8762 132.134 25.1264 131.566 25.3883L131.961 26.2437C132.503 25.9936 133.089 25.7531 133.718 25.5223L133.394 24.6377ZM145.824 38.2L145.392 38.0122L145.231 38.3826L145.573 38.5983L145.824 38.2ZM146.464 36.728L146.675 36.3066L146.231 36.0844L146.032 36.5402L146.464 36.728ZM147.712 37.272L147.545 37.7122L147.554 37.7158L147.564 37.7189L147.712 37.272ZM149.152 37.656L149.249 37.1948L149.249 37.1948L149.152 37.656ZM152.928 37.528L152.793 37.0767L152.789 37.0781L152.928 37.528ZM154.4 36.664L154.049 36.3499L154.048 36.351L154.4 36.664ZM154.336 33.816L153.994 34.1401L154.003 34.1491L154.336 33.816ZM152.8 32.728L152.59 33.1494L152.59 33.1494L152.8 32.728ZM150.72 31.864L150.873 31.4184L150.873 31.4183L150.72 31.864ZM148.352 30.872L148.142 31.2934L148.142 31.2934L148.352 30.872ZM146.432 29.432L146.074 29.7376L146.08 29.745L146.432 29.432ZM147.232 24.216L147.51 24.5967L147.515 24.5929L147.232 24.216ZM152.928 23.224L152.843 23.6872L152.846 23.6878L152.928 23.224ZM156.064 24.344L156.493 24.5389L156.65 24.1943L156.347 23.9671L156.064 24.344ZM155.424 25.752L155.214 26.1734L155.651 26.392L155.853 25.9469L155.424 25.752ZM153.76 25.048L153.59 25.4874L153.595 25.4891L153.76 25.048ZM148.64 25.4L148.902 25.7921L148.91 25.7865L148.64 25.4ZM147.584 27.224H147.113L147.114 27.2378L147.584 27.224ZM148.8 29.016L148.56 29.421L148.568 29.4257L148.8 29.016ZM151.616 30.232L151.772 29.7873L151.765 29.7851L151.616 30.232ZM154.08 31.352L153.848 31.7618L153.856 31.7664L154.08 31.352ZM156.032 32.888L156.39 32.5814L156.39 32.5814L156.032 32.888ZM155.2 38.264L155.479 38.6437L155.481 38.6427L155.2 38.264ZM149.088 39.256L149.169 38.7915L149.155 38.7896L149.088 39.256ZM147.296 38.872L147.148 39.3189L147.157 39.3222L147.167 39.325L147.296 38.872ZM146.257 38.3878L146.897 36.9158L146.032 36.5402L145.392 38.0122L146.257 38.3878ZM146.254 37.1494C146.653 37.3491 147.084 37.5366 147.545 37.7122L147.88 36.8318C147.445 36.666 147.044 36.4909 146.675 36.3066L146.254 37.1494ZM147.564 37.7189C148.031 37.8746 148.528 38.0072 149.056 38.1172L149.249 37.1948C148.753 37.0915 148.29 36.968 147.861 36.8251L147.564 37.7189ZM149.056 38.1172C149.601 38.2306 150.156 38.2871 150.72 38.2871V37.3449C150.219 37.3449 149.728 37.2947 149.249 37.1948L149.056 38.1172ZM150.72 38.2871C151.607 38.2871 152.393 38.1876 153.068 37.9779L152.789 37.0781C152.227 37.2524 151.541 37.3449 150.72 37.3449V38.2871ZM153.064 37.9792C153.763 37.7695 154.338 37.4432 154.753 36.977L154.048 36.351C153.78 36.6528 153.374 36.9025 152.793 37.0768L153.064 37.9792ZM154.752 36.9781C155.196 36.481 155.416 35.8764 155.416 35.192H154.473C154.473 35.6596 154.33 36.0363 154.049 36.3499L154.752 36.9781ZM155.416 35.192C155.416 34.5396 155.152 33.965 154.67 33.4829L154.003 34.1491C154.332 34.4777 154.473 34.8204 154.473 35.192H155.416ZM154.678 33.492C154.248 33.0374 153.687 32.6446 153.011 32.3066L152.59 33.1494C153.194 33.4514 153.657 33.784 153.994 34.14L154.678 33.492ZM153.011 32.3066C152.351 31.9764 151.638 31.6805 150.873 31.4184L150.568 32.3096C151.297 32.5595 151.97 32.8396 152.59 33.1494L153.011 32.3066ZM150.873 31.4183C150.082 31.1478 149.312 30.8252 148.563 30.4506L148.142 31.2934C148.929 31.6868 149.737 32.0256 150.568 32.3097L150.873 31.4183ZM148.563 30.4506C147.843 30.0904 147.252 29.6454 146.785 29.119L146.08 29.745C146.637 30.3706 147.326 30.8856 148.142 31.2934L148.563 30.4506ZM146.791 29.1265C146.378 28.6421 146.168 28.0593 146.168 27.352H145.225C145.225 28.266 145.505 29.0699 146.074 29.7375L146.791 29.1265ZM146.168 27.352C146.168 26.1478 146.616 25.2485 147.51 24.5967L146.955 23.8353C145.801 24.6768 145.225 25.8682 145.225 27.352H146.168ZM147.515 24.5929C148.432 23.9049 149.708 23.5351 151.392 23.5351V22.5929C149.578 22.5929 148.081 22.9911 146.95 23.8391L147.515 24.5929ZM151.392 23.5351C151.805 23.5351 152.287 23.5843 152.843 23.6872L153.014 22.7608C152.418 22.6504 151.876 22.5929 151.392 22.5929V23.5351ZM152.846 23.6878C153.421 23.7904 153.985 23.9341 154.54 24.1189L154.837 23.2251C154.24 23.0259 153.631 22.8709 153.011 22.7602L152.846 23.6878ZM154.54 24.1189C155.086 24.3011 155.494 24.5051 155.782 24.7209L156.347 23.9671C155.952 23.6709 155.443 23.4269 154.837 23.2251L154.54 24.1189ZM155.636 24.1491L154.996 25.5571L155.853 25.9469L156.493 24.5389L155.636 24.1491ZM155.635 25.3306C155.188 25.1072 154.617 24.866 153.926 24.6069L153.595 25.4891C154.269 25.742 154.807 25.9702 155.214 26.1734L155.635 25.3306ZM153.931 24.6087C153.2 24.3257 152.327 24.1929 151.328 24.1929V25.1351C152.25 25.1351 152.999 25.2583 153.59 25.4873L153.931 24.6087ZM151.328 24.1929C150.17 24.1929 149.173 24.4546 148.371 25.0135L148.91 25.7865C149.516 25.364 150.311 25.1351 151.328 25.1351V24.1929ZM148.379 25.008C147.565 25.5511 147.113 26.2968 147.113 27.224H148.056C148.056 26.6579 148.308 26.1876 148.902 25.792L148.379 25.008ZM147.114 27.2378C147.141 28.1677 147.674 28.8941 148.56 29.4209L149.041 28.6111C148.349 28.1992 148.071 27.731 148.055 27.2101L147.114 27.2378ZM148.568 29.4257C149.39 29.8921 150.358 30.309 151.468 30.6789L151.765 29.7851C150.699 29.4297 149.79 29.0359 149.033 28.6063L148.568 29.4257ZM151.461 30.6767C152.287 30.966 153.083 31.3276 153.848 31.7617L154.313 30.9423C153.499 30.4804 152.652 30.0954 151.772 29.7873L151.461 30.6767ZM153.856 31.7664C154.602 32.1695 155.205 32.6468 155.675 33.1946L156.39 32.5814C155.836 31.9345 155.138 31.3879 154.305 30.9376L153.856 31.7664ZM155.675 33.1946C156.109 33.7014 156.329 34.3054 156.329 35.032H157.272C157.272 34.0946 156.98 33.2693 156.39 32.5814L155.675 33.1946ZM156.329 35.032C156.329 36.2531 155.863 37.1878 154.92 37.8853L155.481 38.6427C156.671 37.7615 157.272 36.5416 157.272 35.032H156.329ZM154.922 37.8843C153.99 38.5689 152.59 38.9449 150.656 38.9449V39.8871C152.691 39.8871 154.321 39.4951 155.479 38.6437L154.922 37.8843ZM150.656 38.9449C150.266 38.9449 149.772 38.8958 149.169 38.7917L149.008 39.7203C149.642 39.8296 150.194 39.8871 150.656 39.8871V38.9449ZM149.155 38.7896C148.58 38.7074 148.003 38.584 147.426 38.419L147.167 39.325C147.784 39.5014 148.403 39.6339 149.022 39.7224L149.155 38.7896ZM147.445 38.4251C146.896 38.2421 146.442 38.0329 146.076 37.8017L145.573 38.5983C146.018 38.8791 146.545 39.1179 147.148 39.3189L147.445 38.4251ZM173.215 31.352V31.8231H173.686V31.352H173.215ZM161.695 31.352V30.8809H161.215L161.224 31.3601L161.695 31.352ZM162.271 34.68L161.829 34.8434L161.833 34.855L162.271 34.68ZM164.095 36.984L163.826 37.3715L163.838 37.379L164.095 36.984ZM169.951 37.464L170.088 37.9146L170.096 37.9121L169.951 37.464ZM172.319 36.472L172.747 36.2764L172.542 35.8276L172.104 36.0529L172.319 36.472ZM172.991 37.944L173.209 38.3617L173.605 38.1549L173.419 37.7484L172.991 37.944ZM171.455 38.68L171.63 39.1174L171.637 39.1144L171.644 39.1112L171.455 38.68ZM169.695 39.192L169.602 38.73L169.593 38.7319L169.584 38.734L169.695 39.192ZM163.103 38.36L162.857 38.762L162.86 38.764L163.103 38.36ZM160.511 35.448L160.08 35.638L160.084 35.6468L160.511 35.448ZM159.679 31.16L159.208 31.1535V31.16H159.679ZM160.511 27L160.079 26.8108L160.079 26.8108L160.511 27ZM162.879 24.12L162.616 23.7292L162.616 23.7292L162.879 24.12ZM170.399 24.12L170.116 24.4969L170.12 24.4999L170.399 24.12ZM172.511 27.032L172.068 27.1924L172.071 27.2016L172.511 27.032ZM161.759 29.976L161.29 29.9272L161.236 30.4471H161.759V29.976ZM171.199 29.976V30.4471H171.711L171.668 29.9369L171.199 29.976ZM170.559 27.256L170.122 27.433L170.126 27.443L170.559 27.256ZM162.463 27.256L162.039 27.0499L162.035 27.0593L162.463 27.256ZM173.215 30.8809H161.695V31.8231H173.215V30.8809ZM161.224 31.3601C161.246 32.641 161.445 33.8041 161.829 34.8433L162.713 34.5167C162.371 33.5932 162.186 32.5377 162.166 31.3439L161.224 31.3601ZM161.833 34.855C162.251 35.8989 162.917 36.7415 163.827 37.3713L164.363 36.5967C163.609 36.0745 163.059 35.3811 162.708 34.505L161.833 34.855ZM163.838 37.379C164.791 37.9983 166.009 38.2871 167.455 38.2871V37.3449C166.127 37.3449 165.105 37.079 164.351 36.589L163.838 37.379ZM167.455 38.2871C168.392 38.2871 169.271 38.1643 170.088 37.9145L169.813 37.0135C169.095 37.233 168.309 37.3449 167.455 37.3449V38.2871ZM170.096 37.9121C170.911 37.6478 171.724 37.3072 172.534 36.8911L172.104 36.0529C171.335 36.4475 170.569 36.7682 169.805 37.0159L170.096 37.9121ZM171.89 36.6676L172.562 38.1396L173.419 37.7484L172.747 36.2764L171.89 36.6676ZM172.773 37.5263C172.292 37.7773 171.789 38.0181 171.265 38.2488L171.644 39.1112C172.187 38.8726 172.708 38.6227 173.209 38.3617L172.773 37.5263ZM171.28 38.2426C170.776 38.4439 170.218 38.6069 169.602 38.73L169.787 39.654C170.452 39.5211 171.066 39.3428 171.63 39.1174L171.28 38.2426ZM169.584 38.734C169.01 38.8726 168.334 38.9449 167.551 38.9449V39.8871C168.389 39.8871 169.142 39.81 169.805 39.65L169.584 38.734ZM167.551 38.9449C165.818 38.9449 164.426 38.6045 163.345 37.956L162.86 38.764C164.126 39.5235 165.699 39.8871 167.551 39.8871V38.9449ZM163.348 37.958C162.276 37.303 161.475 36.4034 160.938 35.2492L160.084 35.6468C160.698 36.9673 161.625 38.009 162.857 38.762L163.348 37.958ZM160.942 35.258C160.418 34.0682 160.15 32.7052 160.15 31.16H159.208C159.208 32.8148 159.495 34.3105 160.08 35.638L160.942 35.258ZM160.15 31.1665C160.17 29.6613 160.438 28.3385 160.942 27.1892L160.079 26.8108C159.517 28.0935 159.23 29.544 159.208 31.1535L160.15 31.1665ZM160.942 27.1892C161.442 26.0504 162.175 25.1621 163.142 24.5108L162.616 23.7292C161.492 24.4858 160.646 25.5176 160.079 26.8108L160.942 27.1892ZM163.142 24.5108C164.095 23.8689 165.279 23.5351 166.719 23.5351V22.5929C165.13 22.5929 163.753 22.9631 162.616 23.7292L163.142 24.5108ZM166.719 23.5351C168.161 23.5351 169.28 23.8698 170.116 24.4969L170.681 23.7431C169.64 22.9622 168.306 22.5929 166.719 22.5929V23.5351ZM170.12 24.4999C170.997 25.1429 171.648 26.0333 172.068 27.1924L172.954 26.8716C172.477 25.5561 171.721 24.5051 170.677 23.7401L170.12 24.4999ZM172.071 27.2016C172.516 28.3541 172.744 29.6816 172.744 31.192H173.686C173.686 29.5877 173.444 28.1419 172.95 26.8624L172.071 27.2016ZM172.744 31.192V31.352H173.686V31.192H172.744ZM161.759 30.4471H171.199V29.5049H161.759V30.4471ZM171.668 29.9369C171.579 28.8715 171.356 27.9134 170.991 27.069L170.126 27.443C170.444 28.1772 170.647 29.0325 170.729 30.0151L171.668 29.9369ZM170.995 27.079C170.644 26.2133 170.11 25.5189 169.389 25.0141L168.849 25.7859C169.407 26.1771 169.833 26.72 170.122 27.433L170.995 27.079ZM169.389 25.0141C168.648 24.4957 167.714 24.2569 166.623 24.2569V25.1991C167.58 25.1991 168.309 25.4083 168.849 25.7859L169.389 25.0141ZM166.623 24.2569C165.53 24.2569 164.581 24.4963 163.804 25.0061L164.321 25.7939C164.91 25.4077 165.667 25.1991 166.623 25.1991V24.2569ZM163.804 25.0061C163.045 25.5042 162.457 26.1902 162.039 27.0499L162.886 27.4621C163.236 26.7432 163.715 26.1918 164.321 25.7939L163.804 25.0061ZM162.035 27.0593C161.647 27.9031 161.401 28.8612 161.29 29.9272L162.227 30.0248C162.33 29.0428 162.553 28.1875 162.891 27.4527L162.035 27.0593Z" fill="#2E2F2F" mask="url(#path-7-outside-1_10996_232)"/>
<defs>
<linearGradient id="paint0_linear_10996_232" x1="39.8381" y1="17.0001" x2="39.8381" y2="42.9984" gradientUnits="userSpaceOnUse">
<stop stop-color="#0F56FF"/>
<stop offset="1" stop-color="#0F56FF"/>
</linearGradient>
<linearGradient id="paint1_linear_10996_232" x1="43.3876" y1="17.6415" x2="43.3876" y2="28.8955" gradientUnits="userSpaceOnUse">
<stop stop-color="#0F56FF"/>
<stop offset="1" stop-color="#0F56FF"/>
</linearGradient>
<linearGradient id="paint2_linear_10996_232" x1="30.8482" y1="16.9985" x2="30.8482" y2="28.6228" gradientUnits="userSpaceOnUse">
<stop stop-color="#0F56FF"/>
<stop offset="1" stop-color="#0F56FF"/>
</linearGradient>
<linearGradient id="paint3_linear_10996_232" x1="31" y1="17" x2="31" y2="29" gradientUnits="userSpaceOnUse">
<stop stop-color="#0F56FF"/>
<stop offset="1" stop-color="#0F56FF"/>
</linearGradient>
<linearGradient id="paint4_linear_10996_232" x1="44" y1="17" x2="44" y2="29" gradientUnits="userSpaceOnUse">
<stop stop-color="#0F56FF"/>
<stop offset="1" stop-color="#0F56FF"/>
</linearGradient>
<linearGradient id="paint5_linear_10996_232" x1="39.5" y1="31" x2="39.5" y2="43" gradientUnits="userSpaceOnUse">
<stop stop-color="#0F56FF"/>
<stop offset="1" stop-color="#0F56FF"/>
</linearGradient>
</defs>
</svg>
